<?xml version="1.0" encoding="UTF-8"?>
<svg version="1.1" xmlns="http://www.w3.org/2000/svg" width="200" height="200">
<path d="M0 0 C2.375 1.5 2.375 1.5 3.25 3.875 C3.53216236 12.05770837 3.12100787 18.51735011 -0.625 25.9375 C-3.94053699 32.55274802 -4.4488494 38.19438565 -4.625 45.5 C-4.7728368 47.31413294 -4.93798586 49.12698633 -5.125 50.9375 C-5.20621094 51.72769531 -5.28742187 52.51789063 -5.37109375 53.33203125 C-5.6921231 56.07312799 -6.1250755 58.78612414 -6.625 61.5 C-5.903125 60.778125 -5.18125 60.05625 -4.4375 59.3125 C-3.0453125 57.9203125 -3.0453125 57.9203125 -1.625 56.5 C-0.820625 55.55125 -0.01625 54.6025 0.8125 53.625 C3.375 51.5 3.375 51.5 6.6875 51.6875 C7.574375 51.955625 8.46125 52.22375 9.375 52.5 C11.2475225 57.0642736 11.53427949 60.80044104 11.34765625 65.64453125 C11.1597803 67.51698384 11.1597803 67.51698384 12.375 68.5 C13.035 68.5 13.695 68.5 14.375 68.5 C14.99375 66.64375 14.99375 66.64375 15.625 64.75 C15.90085938 63.93660156 16.17671875 63.12320313 16.4609375 62.28515625 C17.10435759 60.32464975 17.71045901 58.35169799 18.2890625 56.37109375 C20.73810848 48.25738451 20.73810848 48.25738451 23.6875 44.75 C27.07505535 43.17439286 29.68348252 43.21046922 33.375 43.5 C35.28363566 46.25691817 36.55011259 48.31173601 36.046875 51.7265625 C34.88680889 55.41656001 33.83132828 58.00455787 31.1875 60.875 C27.99204183 65.50290493 28.83622846 71.39006129 29.76953125 76.77734375 C30.22637756 78.71549419 30.22637756 78.71549419 32.375 79.5 C32.6225 78.63375 32.87 77.7675 33.125 76.875 C34.375 73.5 34.375 73.5 36.5625 70.5 C38.67050183 67.65423935 38.67050183 67.65423935 38.1875 64.5 C37.919375 63.51 37.65125 62.52 37.375 61.5 C35.96725696 55.98633977 36.86005091 53.43316937 39.375 48.5 C40.375 47.5 40.375 47.5 42.9375 47.4375 C43.741875 47.458125 44.54625 47.47875 45.375 47.5 C47.46730769 51.93076923 47.46730769 51.93076923 47 54.8125 C46.690625 55.6478125 46.690625 55.6478125 46.375 56.5 C46.890625 56.149375 47.40625 55.79875 47.9375 55.4375 C51.33969159 54.12896477 53.86025684 54.770525 57.375 55.5 C58.375 56.5 58.375 56.5 58.625 59 C58.40397922 62.0942909 57.93081388 63.96877489 56.875 66.8125 C55.16123037 71.54346969 55.13667274 75.49512746 55.375 80.5 C55.808125 79.283125 56.24125 78.06625 56.6875 76.8125 C57.60011218 74.3574447 58.47006741 72.3494766 59.875 70.125 C61.34725172 67.5485595 62.07015514 65.34210841 62.875 62.5 C63.93317335 58.788083 64.99301507 55.60693686 67.375 52.5 C68.035 52.5 68.695 52.5 69.375 52.5 C69.375 51.84 69.375 51.18 69.375 50.5 C70.32375 50.54125 71.2725 50.5825 72.25 50.625 C75.47744856 50.84973818 75.47744856 50.84973818 77.375 48.5 C79.025 48.5 80.675 48.5 82.375 48.5 C83.695 52.46 85.015 56.42 86.375 60.5 C86.66375 58.581875 86.9525 56.66375 87.25 54.6875 C87.83057194 50.83084356 88.18757986 48.7811302 90.375 45.5 C92.75 45.0625 92.75 45.0625 95.375 45.5 C97.6875 47.125 97.6875 47.125 99.375 49.5 C99.625 52.75 99.625 52.75 99.375 55.5 C100.035 55.5 100.695 55.5 101.375 55.5 C101.705 54.51 102.035 53.52 102.375 52.5 C103.35350195 51.47895449 104.35480427 50.4793879 105.375 49.5 C106.035 48.51 106.695 47.52 107.375 46.5 C111.08454548 47.00128993 113.03857341 47.52792486 115.375 50.5 C115.80737305 52.5847168 115.80737305 52.5847168 115.88671875 54.94921875 C115.92216797 55.79677734 115.95761719 56.64433594 115.99414062 57.51757812 C116.01669922 58.39865234 116.03925781 59.27972656 116.0625 60.1875 C116.09666016 61.08017578 116.13082031 61.97285156 116.16601562 62.89257812 C116.24845648 65.09492671 116.31761551 67.29687938 116.375 69.5 C116.55675781 68.72914062 116.73851562 67.95828125 116.92578125 67.1640625 C117.17714844 66.16117187 117.42851562 65.15828125 117.6875 64.125 C117.93113281 63.12726563 118.17476562 62.12953125 118.42578125 61.1015625 C119.375 58.5 119.375 58.5 122.375 56.5 C125 56.75 125 56.75 127.375 57.5 C128.52314997 59.79629994 128.68269809 61.57698086 128.9375 64.125 C129.02128906 64.94226563 129.10507813 65.75953125 129.19140625 66.6015625 C129.25199219 67.22804688 129.31257812 67.85453125 129.375 68.5 C132.14933452 62.48894188 132.60284438 57.93427636 132.1875 51.33203125 C132.42945219 47.6775451 133.77672735 45.09827265 136.375 42.5 C139.3125 42.3125 139.3125 42.3125 142.375 42.5 C144.375 44.5 144.375 44.5 144.5625 47.875 C144.41910663 50.64727178 144.21210258 52.88405444 143.375 55.5 C145.06473726 56.38556744 145.06473726 56.38556744 147.375 56.5 C148.365 55.84 149.355 55.18 150.375 54.5 C153.375 52.5 153.375 52.5 155.75 52.75 C156.28625 52.9975 156.8225 53.245 157.375 53.5 C157.25 55.25 157.25 55.25 156.375 57.5 C153.3125 59.75 153.3125 59.75 150.375 61.5 C151.4887813 64.00600794 152.56522322 65.70751624 154.4375 67.75 C156.90371381 71.2504325 157.57766831 74.29650919 157.375 78.5 C156.35394559 83.23893957 154.87259261 88.00240739 151.375 91.5 C150.715 91.5 150.055 91.5 149.375 91.5 C149.375 92.16 149.375 92.82 149.375 93.5 C145.54241524 94.62173212 143.17691664 94.73107268 139.6875 92.875 C136.59400303 90.89707826 134.86404614 88.91604704 133.375 85.5 C133.375 84.51 133.375 83.52 133.375 82.5 C132.488125 82.87125 131.60125 83.2425 130.6875 83.625 C126.96673995 84.60784228 125.70061865 84.26062164 122.375 82.5 C122.375 81.84 122.375 81.18 122.375 80.5 C120.11485111 81.34226928 120.11485111 81.34226928 119.5 83.9375 C118.375 86.5 118.375 86.5 116.6875 87.875 C113.25978665 88.80140901 110.8064044 88.34280108 107.375 87.5 C105.725 86.18 104.075 84.86 102.375 83.5 C102.375 88.45 102.375 93.4 102.375 98.5 C117.885 98.5 133.395 98.5 149.375 98.5 C149.045 99.82 148.715 101.14 148.375 102.5 C141.86052273 102.52529705 135.34605807 102.54284444 128.83154297 102.55493164 C126.61409024 102.55996909 124.39664084 102.56679922 122.17919922 102.57543945 C118.99706195 102.58753072 115.81496849 102.5932341 112.6328125 102.59765625 C111.63694122 102.60281754 110.64106995 102.60797882 109.61502075 102.61329651 C108.23381546 102.61340981 108.23381546 102.61340981 106.82470703 102.61352539 C106.0119632 102.615746 105.19921936 102.61796661 104.36184692 102.62025452 C102.375 102.5 102.375 102.5 100.375 101.5 C100.2821875 102.5828125 100.2821875 102.5828125 100.1875 103.6875 C99.07256663 107.54688475 97.55660819 109.06302352 94.375 111.5 C91.64124485 112.19356381 89.21654852 112.35551448 86.375 112.5 C82.5 105.75 82.5 105.75 81.375 103.5 C80.86525635 103.66298584 80.3555127 103.82597168 79.83032227 103.99389648 C76.54998797 104.67005568 73.43905749 104.6111419 70.08984375 104.59765625 C69.39234512 104.5962413 68.6948465 104.59482635 67.97621155 104.59336853 C65.75493001 104.58779019 63.53375079 104.57525336 61.3125 104.5625 C59.8144546 104.55748115 58.3164076 104.55291892 56.81835938 104.54882812 C53.00387775 104.53748241 49.18945213 104.51883036 45.375 104.5 C43.64449157 104.5 41.91387953 104.50739765 40.18359375 104.53515625 C39.40113281 104.54417969 38.61867187 104.55320312 37.8125 104.5625 C36.63494141 104.57990234 36.63494141 104.57990234 35.43359375 104.59765625 C33.375 104.5 33.375 104.5 31.375 103.5 C30.281875 103.665 29.18875 103.83 28.0625 104 C24.59063391 104.4707615 22.71644966 104.16828993 19.375 103.5 C18.37082031 103.65082031 17.36664063 103.80164063 16.33203125 103.95703125 C11.71010285 104.59123465 7.22106474 104.69101192 2.5625 104.6875 C1.68045898 104.68814453 0.79841797 104.68878906 -0.11035156 104.68945312 C-6.1855674 104.64007937 -11.73240312 104.07135917 -17.625 102.5 C-17.625 101.18 -17.625 99.86 -17.625 98.5 C-15.9234375 98.2834375 -15.9234375 98.2834375 -14.1875 98.0625 C-10.81722799 97.88828522 -10.81722799 97.88828522 -9.625 96.5 C-3.90355644 95.59183436 1.06130444 95.56034246 6.79296875 96.23828125 C13.79883809 96.94840719 20.74832696 96.49158923 27.75 95.9375 C33.66877083 95.5066087 39.25410561 95.68644123 45.15234375 96.23828125 C57.19510976 97.21629982 69.33971305 96.21852459 81.375 95.5 C81.375 93.52 81.375 91.54 81.375 89.5 C80.405625 90.015625 79.43625 90.53125 78.4375 91.0625 C74.05584692 92.9186789 69.87658338 93.17124652 65.375 91.5 C63.3125 88.4375 63.3125 88.4375 62.375 85.5 C61.900625 86.49 61.42625 87.48 60.9375 88.5 C58.375 91.5 58.375 91.5 56.24609375 92.07421875 C52.31427825 92.26206496 50.10225189 92.05942453 46.9375 89.625 C42.98184463 81.71368926 43.04776311 74.91385646 45.375 66.5 C44.715 66.5 44.055 66.5 43.375 66.5 C43.27703125 67.056875 43.1790625 67.61375 43.078125 68.1875 C41.75905101 74.91932589 39.43030802 80.21150717 35.8125 86 C31.6522535 88.56015169 27.09832141 88.36725628 22.375 87.5 C19.6875 85 19.6875 85 18.375 82.5 C17.86839844 83.34884766 17.86839844 83.34884766 17.3515625 84.21484375 C16.90554687 84.94832031 16.45953125 85.68179688 16 86.4375 C15.55914062 87.16839844 15.11828125 87.89929688 14.6640625 88.65234375 C13.375 90.5 13.375 90.5 11.375 91.5 C7.98079455 91.86893538 6.07870167 91.96243252 3.1875 90.0625 C0.65907606 86.48783168 -0.44434565 82.68595634 -1.625 78.5 C-1.85574219 79.48742187 -2.08648438 80.47484375 -2.32421875 81.4921875 C-2.65254667 82.7867376 -2.98203464 84.08099388 -3.3125 85.375 C-3.62574219 86.65117187 -3.93898438 87.92734375 -4.26171875 89.2421875 C-5.625 92.5 -5.625 92.5 -8.0078125 93.95703125 C-11.98346404 94.7818306 -14.63863326 94.34955357 -18.625 93.5 C-23.64432952 85.97100572 -21.60482161 75.26570827 -20.16015625 66.7890625 C-19.33118236 61.10266627 -19.33848169 55.36067181 -19.1875 49.625 C-18.11708281 14.87837021 -18.11708281 14.87837021 -8.1484375 3.73046875 C-3.23158662 -0.61554031 -3.23158662 -0.61554031 0 0 Z M100.8125 60.5625 C98.10511458 63.308287 98.10511458 63.308287 97.875 66.875 C98.44081216 70.97713819 99.56235923 73.79919176 101.375 77.5 C101.705 77.5 102.035 77.5 102.375 77.5 C103.035 71.23 103.695 64.96 104.375 58.5 C102.95659789 58.39549843 102.95659789 58.39549843 100.8125 60.5625 Z M136.375 65.5 C136.705 66.49 137.035 67.48 137.375 68.5 C137.705 67.51 138.035 66.52 138.375 65.5 C137.715 65.5 137.055 65.5 136.375 65.5 Z M71.375 69.5 C69.99731356 70.65568119 69.99731356 70.65568119 70.1875 73.8125 C70.35701948 77.14638318 70.61942871 78.75691987 72.375 81.5 C73.035 81.5 73.695 81.5 74.375 81.5 C75.365 79.19 76.355 76.88 77.375 74.5 C75.7295622 72.81237149 74.06211423 71.1459651 72.375 69.5 C72.045 69.5 71.715 69.5 71.375 69.5 Z M87.375 69.5 C87.045 70.82 86.715 72.14 86.375 73.5 C87.035 73.17 87.695 72.84 88.375 72.5 C88.045 71.51 87.715 70.52 87.375 69.5 Z M140.375 74.5 C138.07424738 77.26745084 138.07424738 77.26745084 138.625 80.125 C138.8725 80.90875 139.12 81.6925 139.375 82.5 C140.035 82.83 140.695 83.16 141.375 83.5 C141.375 80.53 141.375 77.56 141.375 74.5 C141.045 74.5 140.715 74.5 140.375 74.5 Z M88.375 94.5 C89.375 96.5 89.375 96.5 89.375 96.5 Z " fill="#F3BE6D" transform="translate(32.625,43.5)"/>
<path d="M0 0 C3.0625 0.1875 3.0625 0.1875 5.0625 2.1875 C5.27608801 6.03208427 5.24131287 9.50370978 4.0625 13.1875 C5.75223726 14.07306744 5.75223726 14.07306744 8.0625 14.1875 C9.0525 13.5275 10.0425 12.8675 11.0625 12.1875 C14.0625 10.1875 14.0625 10.1875 16.4375 10.4375 C16.97375 10.685 17.51 10.9325 18.0625 11.1875 C17.9375 12.9375 17.9375 12.9375 17.0625 15.1875 C14 17.4375 14 17.4375 11.0625 19.1875 C12.56086105 22.29948065 14.26183758 25.2409615 16.0625 28.1875 C12.30465622 29.90984507 8.78376986 31.32820616 4.75 32.25 C1.05403047 32.8552526 1.05403047 32.8552526 -0.9375 35.1875 C-2.4225 34.1975 -2.4225 34.1975 -3.9375 33.1875 C-3.9375 32.1975 -3.9375 31.2075 -3.9375 30.1875 C-6.39623768 30.32808476 -8.85435175 30.47472999 -11.3125 30.625 C-12.01117188 30.66431641 -12.70984375 30.70363281 -13.4296875 30.74414062 C-17.31110492 30.93030134 -17.31110492 30.93030134 -20.9375 32.1875 C-23.65510108 32.25931821 -26.34609388 32.28049506 -29.0625 32.25 C-30.19365234 32.24323242 -30.19365234 32.24323242 -31.34765625 32.23632812 C-33.21097127 32.22453499 -35.07424555 32.20659942 -36.9375 32.1875 C-36.6075 27.2375 -36.2775 22.2875 -35.9375 17.1875 C-40.23357942 20.65065269 -40.23357942 20.65065269 -40.3125 24.5625 C-40.02110861 28.65977568 -40.02110861 28.65977568 -37.9375 34.1875 C-46.1875 34.1875 -54.4375 34.1875 -62.9375 34.1875 C-63.2675 33.1975 -63.5975 32.2075 -63.9375 31.1875 C-65.93415314 29.50211399 -65.93415314 29.50211399 -67.9375 28.1875 C-68.2675 29.8375 -68.5975 31.4875 -68.9375 33.1875 C-70.37405854 33.26881463 -71.8119483 33.32683559 -73.25 33.375 C-74.45076172 33.42720703 -74.45076172 33.42720703 -75.67578125 33.48046875 C-78.41601584 33.12551608 -79.22921079 32.29383718 -80.9375 30.1875 C-80.504375 29.56875 -80.07125 28.95 -79.625 28.3125 C-78.12030543 25.52602858 -77.28952592 23.20790936 -76.4375 20.1875 C-75.37932665 16.475583 -74.31948493 13.29443686 -71.9375 10.1875 C-71.2775 10.1875 -70.6175 10.1875 -69.9375 10.1875 C-69.9375 9.5275 -69.9375 8.8675 -69.9375 8.1875 C-68.98875 8.22875 -68.04 8.27 -67.0625 8.3125 C-63.83505144 8.53723818 -63.83505144 8.53723818 -61.9375 6.1875 C-60.2875 6.1875 -58.6375 6.1875 -56.9375 6.1875 C-55.6175 10.1475 -54.2975 14.1075 -52.9375 18.1875 C-52.64875 16.269375 -52.36 14.35125 -52.0625 12.375 C-51.48192806 8.51834356 -51.12492014 6.4686302 -48.9375 3.1875 C-46.5625 2.75 -46.5625 2.75 -43.9375 3.1875 C-41.625 4.8125 -41.625 4.8125 -39.9375 7.1875 C-39.6875 10.4375 -39.6875 10.4375 -39.9375 13.1875 C-39.2775 13.1875 -38.6175 13.1875 -37.9375 13.1875 C-37.6075 12.1975 -37.2775 11.2075 -36.9375 10.1875 C-35.95899805 9.16645449 -34.95769573 8.1668879 -33.9375 7.1875 C-33.2775 6.1975 -32.6175 5.2075 -31.9375 4.1875 C-28.22795452 4.68878993 -26.27392659 5.21542486 -23.9375 8.1875 C-23.50512695 10.2722168 -23.50512695 10.2722168 -23.42578125 12.63671875 C-23.39033203 13.48427734 -23.35488281 14.33183594 -23.31835938 15.20507812 C-23.28452148 16.52668945 -23.28452148 16.52668945 -23.25 17.875 C-23.21583984 18.76767578 -23.18167969 19.66035156 -23.14648438 20.58007812 C-23.06404352 22.78242671 -22.99488449 24.98437938 -22.9375 27.1875 C-22.75574219 26.41664062 -22.57398438 25.64578125 -22.38671875 24.8515625 C-22.00966797 23.34722656 -22.00966797 23.34722656 -21.625 21.8125 C-21.38136719 20.81476563 -21.13773438 19.81703125 -20.88671875 18.7890625 C-19.9375 16.1875 -19.9375 16.1875 -16.9375 14.1875 C-14.3125 14.4375 -14.3125 14.4375 -11.9375 15.1875 C-10.78935003 17.48379994 -10.62980191 19.26448086 -10.375 21.8125 C-10.29121094 22.62976563 -10.20742187 23.44703125 -10.12109375 24.2890625 C-10.06050781 24.91554688 -9.99992187 25.54203125 -9.9375 26.1875 C-7.16316548 20.17644188 -6.70965562 15.62177636 -7.125 9.01953125 C-6.80880325 4.2436429 -4.91946766 0.31400857 0 0 Z M-2.9375 23.1875 C-2.6075 24.1775 -2.2775 25.1675 -1.9375 26.1875 C-1.6075 25.1975 -1.2775 24.2075 -0.9375 23.1875 C-1.5975 23.1875 -2.2575 23.1875 -2.9375 23.1875 Z M-51.9375 27.1875 C-52.2675 28.5075 -52.5975 29.8275 -52.9375 31.1875 C-52.2775 30.8575 -51.6175 30.5275 -50.9375 30.1875 C-51.2675 29.1975 -51.5975 28.2075 -51.9375 27.1875 Z " fill="#4984B6" transform="translate(171.9375,85.8125)"/>
<path d="M0 0 C1.49636984 7.48184922 0.42769883 13.01857391 -3.5625 19.5625 C-4.036875 20.036875 -4.51125 20.51125 -5 21 C-5.66 21 -6.32 21 -7 21 C-7 21.66 -7 22.32 -7 23 C-10.83258476 24.12173212 -13.19808336 24.23107268 -16.6875 22.375 C-19.78099697 20.39707826 -21.51095386 18.41604704 -23 15 C-23 14.01 -23 13.02 -23 12 C-23.886875 12.37125 -24.77375 12.7425 -25.6875 13.125 C-29.40826005 14.10784228 -30.67438135 13.76062164 -34 12 C-34 11.34 -34 10.68 -34 10 C-36.26014889 10.84226928 -36.26014889 10.84226928 -36.875 13.4375 C-38 16 -38 16 -39.6875 17.375 C-43.11521335 18.30140901 -45.5685956 17.84280108 -49 17 C-50.65 15.68 -52.3 14.36 -54 13 C-54 17.95 -54 22.9 -54 28 C-38.49 28 -22.98 28 -7 28 C-7.33 29.32 -7.66 30.64 -8 32 C-14.51447727 32.02529705 -21.02894193 32.04284444 -27.54345703 32.05493164 C-29.76090976 32.05996909 -31.97835916 32.06679922 -34.19580078 32.07543945 C-37.37793805 32.08753072 -40.56003151 32.0932341 -43.7421875 32.09765625 C-44.73805878 32.10281754 -45.73393005 32.10797882 -46.75997925 32.11329651 C-48.14118454 32.11340981 -48.14118454 32.11340981 -49.55029297 32.11352539 C-50.3630368 32.115746 -51.17578064 32.11796661 -52.01315308 32.12025452 C-54 32 -54 32 -56 31 C-56.0928125 32.0828125 -56.0928125 32.0828125 -56.1875 33.1875 C-57.30243337 37.04688475 -58.81839181 38.56302352 -62 41 C-64.73375515 41.69356381 -67.15845148 41.85551448 -70 42 C-72.95047835 37.38987758 -74.5497272 34.63470383 -74 29 C-73.34 29 -72.68 29 -72 29 C-72 31.64 -72 34.28 -72 37 C-71.34 37 -70.68 37 -70 37 C-70.2475 36.46375 -70.495 35.9275 -70.75 35.375 C-71.13553144 31.71245136 -69.13181966 29.84242621 -67 27 C-65.02 27.66 -63.04 28.32 -61 29 C-58.47742533 24.83179723 -56.95060817 22.03722847 -57.1875 17.0625 C-57.68703706 14.14558443 -57.68703706 14.14558443 -59 13 C-59 13.99 -59 14.98 -59 16 C-60.32 16 -61.64 16 -63 16 C-64.84953941 13.22569089 -66 11.35957737 -66 8 C-66.66 7.67 -67.32 7.34 -68 7 C-64.2989766 5.76632553 -61.23581813 6.06247349 -57.375 6.2578125 C-54.93190509 6.25733293 -54.93190509 6.25733293 -53.62890625 4.5 C-51.00508016 2.08381483 -48.39196 2.75354019 -44.9375 2.875 C-40.30495262 3.23043177 -40.30495262 3.23043177 -36 2 C-33.44842345 1.9283265 -30.92527029 1.90691558 -28.375 1.9375 C-27.31539062 1.94426758 -27.31539062 1.94426758 -26.234375 1.95117188 C-24.48954725 1.96296125 -22.744763 1.98089676 -21 2 C-21 2.99 -21 3.98 -21 5 C-20.01 5.33 -19.02 5.66 -18 6 C-16.8125 9.0625 -16.8125 9.0625 -16 12 C-15.814375 10.329375 -15.814375 10.329375 -15.625 8.625 C-15 5 -15 5 -13 3 C-10.72265625 2.1484375 -10.72265625 2.1484375 -8.0625 1.375 C-7.18722656 1.11460938 -6.31195313 0.85421875 -5.41015625 0.5859375 C-3 0 -3 0 0 0 Z " fill="#F2CA88" transform="translate(189,114)"/>
<path d="M0 0 C2.375 1.5 2.375 1.5 3.25 3.875 C3.53216236 12.05770837 3.12100787 18.51735011 -0.625 25.9375 C-3.94053699 32.55274802 -4.4488494 38.19438565 -4.625 45.5 C-4.7728368 47.31413294 -4.93798586 49.12698633 -5.125 50.9375 C-5.20621094 51.72769531 -5.28742187 52.51789063 -5.37109375 53.33203125 C-5.6921231 56.07312799 -6.1250755 58.78612414 -6.625 61.5 C-5.903125 60.778125 -5.18125 60.05625 -4.4375 59.3125 C-3.0453125 57.9203125 -3.0453125 57.9203125 -1.625 56.5 C-0.820625 55.55125 -0.01625 54.6025 0.8125 53.625 C3.375 51.5 3.375 51.5 6.6875 51.6875 C7.574375 51.955625 8.46125 52.22375 9.375 52.5 C11.1823218 56.90534689 11.54238953 60.4826514 11.34765625 65.15625 C11.3809521 68.01017962 11.85562182 70.69777356 12.375 73.5 C10.08263814 73.02417032 7.79112791 72.54423615 5.5 72.0625 C4.22382812 71.79566406 2.94765625 71.52882813 1.6328125 71.25390625 C-1.625 70.5 -1.625 70.5 -3.625 69.5 C-9.09567336 69.31135609 -14.20428879 69.78405701 -19.625 70.5 C-19.55488038 65.95036035 -19.46636605 61.40153475 -19.36254883 56.85253906 C-19.32979436 55.31291942 -19.30161826 53.77319389 -19.27856445 52.23339844 C-18.71508226 15.54711092 -18.71508226 15.54711092 -8.1484375 3.73046875 C-3.23158662 -0.61554031 -3.23158662 -0.61554031 0 0 Z " fill="#3183C0" transform="translate(32.625,43.5)"/>
<path d="M0 0 C1.90863566 2.75691817 3.17511259 4.81173601 2.671875 8.2265625 C1.52426053 11.87695322 0.51141949 14.44517591 -2.1171875 17.296875 C-4.94508899 21.35684975 -4.23743713 24.94855895 -3.93164062 29.73632812 C-3.84765625 31.69921875 -3.84765625 31.69921875 -4 35 C-4.99 35.66 -5.98 36.32 -7 37 C-7.33 36.34 -7.66 35.68 -8 35 C-10.02333934 34.53157288 -10.02333934 34.53157288 -12.375 34.375 C-13.16648438 34.30023438 -13.95796875 34.22546875 -14.7734375 34.1484375 C-16.51246725 34.03250218 -18.25711002 34 -20 34 C-20 33.34 -20 32.68 -20 32 C-20.66 31.87625 -21.32 31.7525 -22 31.625 C-25.69698583 30.85479462 -29.34005942 29.93049337 -33 29 C-33.103125 29.639375 -33.20625 30.27875 -33.3125 30.9375 C-34.24100092 35.07354957 -35.577123 39.01049797 -37 43 C-37.23847656 43.69351563 -37.47695313 44.38703125 -37.72265625 45.1015625 C-39.44279723 49.66980577 -39.44279723 49.66980577 -41.6875 51 C-45.27337921 51 -48.45922644 50.68531101 -52 50 C-54.36633345 46.45049982 -54.41325942 44.40900658 -54.6875 40.1875 C-54.77386719 38.98480469 -54.86023437 37.78210938 -54.94921875 36.54296875 C-54.99704586 33.20610786 -54.66438836 30.26199696 -54 27 C-45.03435165 24.94231022 -37.9361048 24.07545661 -29 27 C-27.68906322 27.38042871 -26.37658134 27.75557954 -25.0625 28.125 C-24.051875 28.41375 -23.04125 28.7025 -22 29 C-21.67 27.68 -21.34 26.36 -21 25 C-20.34 25 -19.68 25 -19 25 C-18.38125 23.14375 -18.38125 23.14375 -17.75 21.25 C-17.47414062 20.43660156 -17.19828125 19.62320313 -16.9140625 18.78515625 C-16.27064241 16.82464975 -15.66454099 14.85169799 -15.0859375 12.87109375 C-12.63689152 4.75738451 -12.63689152 4.75738451 -9.6875 1.25 C-6.29994465 -0.32560714 -3.69151748 -0.28953078 0 0 Z " fill="#F3C574" transform="translate(66,87)"/>
<path d="M0 0 C6.6425849 0.50979747 13.0207325 0.22142062 19.66015625 -0.30078125 C25.61842935 -0.72849378 31.24285823 -0.55680372 37.1796875 0 C46.75450977 0.77571112 56.34007046 0.25261086 65.90136719 -0.47021484 C71.1999718 -0.84337347 71.1999718 -0.84337347 73.41015625 0.26171875 C73.41015625 2.57171875 73.41015625 4.88171875 73.41015625 7.26171875 C69.64456871 8.4657307 66.05631389 8.37520449 62.125 8.359375 C61.42750137 8.35796005 60.73000275 8.3565451 60.0113678 8.35508728 C57.79008626 8.34950894 55.56890704 8.33697211 53.34765625 8.32421875 C51.84961085 8.3191999 50.35156385 8.31463767 48.85351562 8.31054688 C45.039034 8.29920116 41.22460838 8.28054911 37.41015625 8.26171875 C35.67964782 8.26171875 33.94903578 8.2691164 32.21875 8.296875 C31.43628906 8.30589844 30.65382812 8.31492188 29.84765625 8.32421875 C28.67009766 8.34162109 28.67009766 8.34162109 27.46875 8.359375 C25.41015625 8.26171875 25.41015625 8.26171875 23.41015625 7.26171875 C22.31703125 7.42671875 21.22390625 7.59171875 20.09765625 7.76171875 C16.62579016 8.23248025 14.75160591 7.93000868 11.41015625 7.26171875 C10.40597656 7.41253906 9.40179688 7.56335938 8.3671875 7.71875 C3.7452591 8.3529534 -0.74377901 8.45273067 -5.40234375 8.44921875 C-6.28438477 8.44986328 -7.16642578 8.45050781 -8.07519531 8.45117188 C-14.15041115 8.40179812 -19.69724687 7.83307792 -25.58984375 6.26171875 C-25.58984375 4.94171875 -25.58984375 3.62171875 -25.58984375 2.26171875 C-24.45546875 2.11734375 -23.32109375 1.97296875 -22.15234375 1.82421875 C-18.78207174 1.65000397 -18.78207174 1.65000397 -17.58984375 0.26171875 C-11.65818269 -1.11773731 -6.03195895 -0.48839205 0 0 Z " fill="#E7CB95" transform="translate(40.58984375,139.73828125)"/>
<path d="M0 0 C2.25 1.5625 2.25 1.5625 3.125 3.9375 C3.40716236 12.12020837 2.99600787 18.57985011 -0.75 26 C-4.36045215 33.15180475 -4.75 39.67371666 -4.75 47.5625 C-6.07 47.5625 -7.39 47.5625 -8.75 47.5625 C-9.08 46.9025 -9.41 46.2425 -9.75 45.5625 C-11.235 46.0575 -11.235 46.0575 -12.75 46.5625 C-14.9375 45.625 -14.9375 45.625 -16.75 44.5625 C-16.42 43.2425 -16.09 41.9225 -15.75 40.5625 C-15.09 40.5625 -14.43 40.5625 -13.75 40.5625 C-14.74 37.0975 -14.74 37.0975 -15.75 33.5625 C-14.1 32.5725 -12.45 31.5825 -10.75 30.5625 C-11.224375 30.088125 -11.69875 29.61375 -12.1875 29.125 C-13.04166667 28.27083333 -13.89583333 27.41666667 -14.75 26.5625 C-15.41 29.5325 -16.07 32.5025 -16.75 35.5625 C-17.08 35.5625 -17.41 35.5625 -17.75 35.5625 C-17.43865798 29.02431762 -16.23751079 23.07767483 -14.4375 16.8125 C-14.13646362 15.73174194 -14.13646362 15.73174194 -13.8293457 14.62915039 C-12.15572266 9.01560731 -9.94262297 4.36157526 -5.3125 0.5625 C-2.75 -0.4375 -2.75 -0.4375 0 0 Z " fill="#4B92C5" transform="translate(32.75,43.4375)"/>
<path d="M0 0 C3.0625 0.1875 3.0625 0.1875 5.0625 2.1875 C5.27608801 6.03208427 5.24131287 9.50370978 4.0625 13.1875 C5.75223726 14.07306744 5.75223726 14.07306744 8.0625 14.1875 C9.0525 13.5275 10.0425 12.8675 11.0625 12.1875 C14.0625 10.1875 14.0625 10.1875 16.4375 10.4375 C16.97375 10.685 17.51 10.9325 18.0625 11.1875 C17.9375 12.9375 17.9375 12.9375 17.0625 15.1875 C14 17.4375 14 17.4375 11.0625 19.1875 C12.56086105 22.29948065 14.26183758 25.2409615 16.0625 28.1875 C12.30465622 29.90984507 8.78376986 31.32820616 4.75 32.25 C1.05403047 32.8552526 1.05403047 32.8552526 -0.9375 35.1875 C-1.9275 34.5275 -2.9175 33.8675 -3.9375 33.1875 C-3.9375 32.1975 -3.9375 31.2075 -3.9375 30.1875 C-5.9175 30.1875 -7.8975 30.1875 -9.9375 30.1875 C-9.50173631 27.13715414 -9.03466652 24.42755845 -7.875 21.5625 C-6.69150621 17.30192235 -6.92835408 13.48277759 -7.16015625 9.08984375 C-6.79250963 4.29753779 -4.96552254 0.31694825 0 0 Z M-2.9375 23.1875 C-2.6075 24.1775 -2.2775 25.1675 -1.9375 26.1875 C-1.6075 25.1975 -1.2775 24.2075 -0.9375 23.1875 C-1.5975 23.1875 -2.2575 23.1875 -2.9375 23.1875 Z " fill="#2C79B2" transform="translate(171.9375,85.8125)"/>
<path d="M0 0 C1.49636984 7.48184922 0.42769883 13.01857391 -3.5625 19.5625 C-4.036875 20.036875 -4.51125 20.51125 -5 21 C-5.66 21 -6.32 21 -7 21 C-7 21.66 -7 22.32 -7 23 C-10.83258476 24.12173212 -13.19808336 24.23107268 -16.6875 22.375 C-19.78099697 20.39707826 -21.51095386 18.41604704 -23 15 C-23 14.01 -23 13.02 -23 12 C-24.98 12.66 -26.96 13.32 -29 14 C-29.763125 13.195625 -30.52625 12.39125 -31.3125 11.5625 C-33.79430898 8.83200976 -33.79430898 8.83200976 -37 8 C-36.67 6.02 -36.34 4.04 -36 2 C-31.05 2 -26.1 2 -21 2 C-21 2.99 -21 3.98 -21 5 C-20.01 5.33 -19.02 5.66 -18 6 C-16.8125 9.0625 -16.8125 9.0625 -16 12 C-15.87625 10.88625 -15.7525 9.7725 -15.625 8.625 C-15 5 -15 5 -13 3 C-10.72265625 2.1484375 -10.72265625 2.1484375 -8.0625 1.375 C-7.18722656 1.11460938 -6.31195313 0.85421875 -5.41015625 0.5859375 C-3 0 -3 0 0 0 Z " fill="#EBB96A" transform="translate(189,114)"/>
<path d="M0 0 C3.125 0.375 3.125 0.375 6 1 C5.2617026 2.75496922 4.50881758 4.50380532 3.75 6.25 C3.12351562 7.71179688 3.12351562 7.71179688 2.484375 9.203125 C0.92428198 12.14266869 -0.36613493 13.96775519 -3 16 C-6.72673384 16.79467119 -10.25615366 16.68741337 -14 16 C-16.6875 13.5 -16.6875 13.5 -18 11 C-18.50660156 11.84884766 -18.50660156 11.84884766 -19.0234375 12.71484375 C-19.46945313 13.44832031 -19.91546875 14.18179688 -20.375 14.9375 C-20.81585938 15.66839844 -21.25671875 16.39929688 -21.7109375 17.15234375 C-23 19 -23 19 -25 20 C-28.57529739 20.38861928 -30.32640241 20.50519819 -33.25 18.3125 C-37.21863384 13.06823386 -37.08624769 9.36139152 -36.2890625 3.01171875 C-36.14597656 2.01591797 -36.14597656 2.01591797 -36 1 C-28.73195021 1.62655602 -28.73195021 1.62655602 -24.9375 3.5625 C-21.39657412 5.29529352 -18.90054484 5.070919 -15 5 C-12.0625 6 -12.0625 6 -10 7 C-9.34 6.34 -8.68 5.68 -8 5 C-8 5.66 -8 6.32 -8 7 C-6.68 7.33 -5.36 7.66 -4 8 C-3.71125 7.05125 -3.4225 6.1025 -3.125 5.125 C-2 2 -2 2 0 0 Z " fill="#F2BB5C" transform="translate(69,115)"/>
<path d="M0 0 C1.90863566 2.75691817 3.17511259 4.81173601 2.671875 8.2265625 C1.50281036 11.94518302 0.32616743 14.60859909 -2.1875 17.625 C-4.62950383 20.82486709 -4.22230325 23.07264259 -4 27 C-4.33 27.66 -4.66 28.32 -5 29 C-7.58203125 29.484375 -7.58203125 29.484375 -10.8125 29.75 C-11.87082031 29.84796875 -12.92914063 29.9459375 -14.01953125 30.046875 C-17.0179524 29.99971766 -18.49682017 29.57585171 -21 28 C-21 27.01 -21 26.02 -21 25 C-20.34 25 -19.68 25 -19 25 C-18.5875 23.7625 -18.175 22.525 -17.75 21.25 C-17.47414062 20.43660156 -17.19828125 19.62320313 -16.9140625 18.78515625 C-16.27064241 16.82464975 -15.66454099 14.85169799 -15.0859375 12.87109375 C-12.63689152 4.75738451 -12.63689152 4.75738451 -9.6875 1.25 C-6.29994465 -0.32560714 -3.69151748 -0.28953078 0 0 Z " fill="#4892C3" transform="translate(66,87)"/>
<path d="M0 0 C1.2065625 0.0309375 1.2065625 0.0309375 2.4375 0.0625 C4.52980769 4.49326923 4.52980769 4.49326923 4.0625 7.375 C3.85625 7.931875 3.65 8.48875 3.4375 9.0625 C3.953125 8.711875 4.46875 8.36125 5 8 C8.40219159 6.69146477 10.92275684 7.333025 14.4375 8.0625 C15.4375 9.0625 15.4375 9.0625 15.75 11.5 C15.31601233 16.44745939 13.43417448 20.55215498 11.4375 25.0625 C6.4875 25.5575 6.4875 25.5575 1.4375 26.0625 C1.7675 23.7525 2.0975 21.4425 2.4375 19.0625 C1.7775 19.0625 1.1175 19.0625 0.4375 19.0625 C0.1075 21.0425 -0.2225 23.0225 -0.5625 25.0625 C-2.5425 24.7325 -4.5225 24.4025 -6.5625 24.0625 C-6.211875 23.52625 -5.86125 22.99 -5.5 22.4375 C-3.9584108 18.53214068 -5.30204639 15.08260996 -6.3125 11.125 C-6.65425403 6.93851313 -5.46009861 4.78471267 -3.5625 1.0625 C-2.5625 0.0625 -2.5625 0.0625 0 0 Z " fill="#4988AB" transform="translate(75.5625,90.9375)"/>
<path d="M0 0 C1.60517097 0.08733576 3.20921662 0.19552224 4.8125 0.3125 C6.15248047 0.39951172 6.15248047 0.39951172 7.51953125 0.48828125 C10.34395234 1.0709571 11.24738613 1.76085609 13 4 C13.33 4.66 13.66 5.32 14 6 C15.62490124 7.766197 16.84203813 8.92101907 19 10 C19 9.01 19 8.02 19 7 C19.66 7.33 20.32 7.66 21 8 C22.57046546 13.49662911 21.68695165 16.57097128 19.10546875 21.3984375 C18 23 18 23 16 24 C13.375 23.0625 13.375 23.0625 11 22 C8.64089647 26.2637281 8.64089647 26.2637281 8 31 C7.34 31 6.68 31 6 31 C6 28.36 6 25.72 6 23 C5.01 23 4.02 23 3 23 C3.144375 22.29875 3.28875 21.5975 3.4375 20.875 C4.01478375 17.92443859 4.51695141 14.96729849 5 12 C1.95613276 11.91773332 -0.07175348 12.02391783 -3 13 C-2.67 12.01 -2.34 11.02 -2 10 C-0.35 10 1.3 10 3 10 C2.34 9.67 1.68 9.34 1 9 C-0.79401325 5.50639525 -1.11665191 3.71425351 0 0 Z M10 18 C11 20 11 20 11 20 Z " fill="#F1B86C" transform="translate(111,120)"/>
<path d="M0 0 C16.17 0 32.34 0 49 0 C48.67 1.32 48.34 2.64 48 4 C41.48552273 4.02529705 34.97105807 4.04284444 28.45654297 4.05493164 C26.23909024 4.05996909 24.02164084 4.06679922 21.80419922 4.07543945 C18.62206195 4.08753072 15.43996849 4.0932341 12.2578125 4.09765625 C11.26194122 4.10281754 10.26606995 4.10797882 9.24002075 4.11329651 C7.85881546 4.11340981 7.85881546 4.11340981 6.44970703 4.11352539 C5.6369632 4.115746 4.82421936 4.11796661 3.98684692 4.12025452 C2 4 2 4 0 3 C-0.061875 3.721875 -0.12375 4.44375 -0.1875 5.1875 C-1.27477695 8.95115098 -2.99175613 10.53870956 -6 13 C-8.8125 13.8125 -8.8125 13.8125 -11 14 C-11.38909985 12.54536519 -11.76088029 11.08608793 -12.125 9.625 C-12.33382812 8.81289062 -12.54265625 8.00078125 -12.7578125 7.1640625 C-12.83773437 6.44992188 -12.91765625 5.73578125 -13 5 C-11 3 -11 3 -8 2.6875 C-7.01 2.790625 -6.02 2.89375 -5 3 C-4.01 4.485 -4.01 4.485 -3 6 C-2.01 4.02 -1.02 2.04 0 0 Z " fill="#E3D4B1" transform="translate(133,142)"/>
<path d="M0 0 C0.78375 0.2475 1.5675 0.495 2.375 0.75 C3.56837365 3.1367473 3.69194944 5.03321535 3.9375 7.6875 C4.06318359 9.00041016 4.06318359 9.00041016 4.19140625 10.33984375 C4.375 12.75 4.375 12.75 4.375 15.75 C3.74851563 15.81058594 3.12203125 15.87117188 2.4765625 15.93359375 C1.25066406 16.05927734 1.25066406 16.05927734 0 16.1875 C-0.81210938 16.26871094 -1.62421875 16.34992188 -2.4609375 16.43359375 C-4.66772805 16.64090114 -4.66772805 16.64090114 -6.625 17.75 C-9.34260108 17.82181821 -12.03359388 17.84299506 -14.75 17.8125 C-15.50410156 17.80798828 -16.25820312 17.80347656 -17.03515625 17.79882812 C-18.89847127 17.78703499 -20.76174555 17.76909942 -22.625 17.75 C-22.625 15.77 -22.625 13.79 -22.625 11.75 C-21.635 11.75 -20.645 11.75 -19.625 11.75 C-19.625 12.74 -19.625 13.73 -19.625 14.75 C-18.965 14.75 -18.305 14.75 -17.625 14.75 C-16.94826553 11.34679066 -16.94826553 11.34679066 -16.625 7.75 C-17.285 7.09 -17.945 6.43 -18.625 5.75 C-17.635 5.42 -16.645 5.09 -15.625 4.75 C-14.965 5.08 -14.305 5.41 -13.625 5.75 C-13.625 7.4 -13.625 9.05 -13.625 10.75 C-12.965 11.08 -12.305 11.41 -11.625 11.75 C-10.965 9.44 -10.305 7.13 -9.625 4.75 C-8.27060332 7.45879335 -8.55998549 9.75933268 -8.625 12.75 C-8.44324219 11.97914062 -8.26148438 11.20828125 -8.07421875 10.4140625 C-7.82285156 9.41117188 -7.57148438 8.40828125 -7.3125 7.375 C-7.06886719 6.37726563 -6.82523438 5.37953125 -6.57421875 4.3515625 C-5.26555841 0.76486378 -3.85288172 -0.36694112 0 0 Z " fill="#7597A3" transform="translate(157.625,100.25)"/>
<path d="M0 0 C2.625 0.25 2.625 0.25 4.4375 1.75 C4.829375 2.245 5.22125 2.74 5.625 3.25 C4.305 3.25 2.985 3.25 1.625 3.25 C1.295 5.23 0.965 7.21 0.625 9.25 C-0.035 8.92 -0.695 8.59 -1.375 8.25 C-2.85306867 12.09297855 -1.6851318 14.48337109 -0.375 18.25 C-0.705 18.91 -1.035 19.57 -1.375 20.25 C-0.715 20.25 -0.055 20.25 0.625 20.25 C1.615 22.23 2.605 24.21 3.625 26.25 C2.635 26.58 1.645 26.91 0.625 27.25 C0.955 28.24 1.285 29.23 1.625 30.25 C0.625 31.25 0.625 31.25 -3.19140625 31.34765625 C-4.77346682 31.34098089 -6.35551159 31.32901875 -7.9375 31.3125 C-8.74380859 31.30798828 -9.55011719 31.30347656 -10.38085938 31.29882812 C-12.37893756 31.28700518 -14.37697783 31.26906914 -16.375 31.25 C-16.705 30.26 -17.035 29.27 -17.375 28.25 C-18.035 27.92 -18.695 27.59 -19.375 27.25 C-19.375 26.26 -19.375 25.27 -19.375 24.25 C-18.715 24.25 -18.055 24.25 -17.375 24.25 C-17.375 24.91 -17.375 25.57 -17.375 26.25 C-16.385 25.92 -15.395 25.59 -14.375 25.25 C-13.715 25.91 -13.055 26.57 -12.375 27.25 C-10.30625966 27.8925235 -10.30625966 27.8925235 -8.375 28.25 C-8.045 26.93 -7.715 25.61 -7.375 24.25 C-8.695 23.92 -10.015 23.59 -11.375 23.25 C-11.045 22.59 -10.715 21.93 -10.375 21.25 C-9.715 21.58 -9.055 21.91 -8.375 22.25 C-8.045 21.26 -7.715 20.27 -7.375 19.25 C-6.055 20.57 -4.735 21.89 -3.375 23.25 C-3.725625 22.46625 -4.07625 21.6825 -4.4375 20.875 C-4.746875 20.00875 -5.05625 19.1425 -5.375 18.25 C-5.045 17.59 -4.715 16.93 -4.375 16.25 C-4.560625 15.404375 -4.74625 14.55875 -4.9375 13.6875 C-5.5024077 9.24893952 -4.68239964 5.50352623 -3.375 1.25 C-2.375 0.25 -2.375 0.25 0 0 Z M-5.375 24.25 C-5.705 25.57 -6.035 26.89 -6.375 28.25 C-5.715 27.92 -5.055 27.59 -4.375 27.25 C-4.705 26.26 -5.035 25.27 -5.375 24.25 Z " fill="#307BB9" transform="translate(125.375,88.75)"/>
<path d="M0 0 C0 0.33 0 0.66 0 1 C-7.92 1.33 -15.84 1.66 -24 2 C-23.34 3.32 -22.68 4.64 -22 6 C-21.33333333 7.33333333 -20.66666667 8.66666667 -20 10 C-19.4225 9.484375 -18.845 8.96875 -18.25 8.4375 C-16 7 -16 7 -13.75 7.3125 C-13.1725 7.539375 -12.595 7.76625 -12 8 C-11.67 9.98 -11.34 11.96 -11 14 C-12.875 14.625 -12.875 14.625 -15 15 C-15.66 14.34 -16.32 13.68 -17 13 C-18.33304698 15.89186786 -18.33304698 15.89186786 -17.0625 18.1875 C-16.711875 18.785625 -16.36125 19.38375 -16 20 C-16.33 20.33 -16.66 20.66 -17 21 C-15.68 21.66 -14.36 22.32 -13 23 C-15.35289699 24.1764485 -16.41818951 24.03475851 -19 23.75 C-19.70125 23.68296875 -20.4025 23.6159375 -21.125 23.546875 C-23 23 -23 23 -25 20 C-25.44921875 16.85546875 -25.44921875 16.85546875 -25.6875 13.1875 C-25.77386719 11.98480469 -25.86023437 10.78210938 -25.94921875 9.54296875 C-25.99704586 6.20610786 -25.66438836 3.26199696 -25 0 C-16.19898634 -2.33029203 -8.69292648 -2.95929412 0 0 Z " fill="#F9CB82" transform="translate(37,114)"/>
<path d="M0 0 C2.79828356 0.38597015 3.8205884 0.80136573 5.75 2.9375 C7 5 7 5 7 7 C6.34 7 5.68 7 5 7 C5 7.99 5 8.98 5 10 C4.67 10.33 4.34 10.66 4 11 C4.40929986 13.05396726 4.40929986 13.05396726 5 15 C3.68 15 2.36 15 1 15 C0.67 17.64 0.34 20.28 0 23 C-1.43655854 23.08131463 -2.8744483 23.13933559 -4.3125 23.1875 C-5.51326172 23.23970703 -5.51326172 23.23970703 -6.73828125 23.29296875 C-9.47851584 22.93801608 -10.29171079 22.10633718 -12 20 C-11.566875 19.38125 -11.13375 18.7625 -10.6875 18.125 C-8.74825029 14.53379684 -7.87193923 11.06560328 -6.94140625 7.109375 C-6.63074219 6.41328125 -6.32007812 5.7171875 -6 5 C-3.90234375 4.203125 -3.90234375 4.203125 -2 4 C-2.50603992 6.16874252 -2.99983813 7.99967627 -4 10 C-1.97954558 9.39816251 0.02111039 8.72693904 2 8 C2.33 7.34 2.66 6.68 3 6 C2.34 6 1.68 6 1 6 C0.67 4.02 0.34 2.04 0 0 Z " fill="#458EC5" transform="translate(103,96)"/>
<path d="M0 0 C5.94 0.99 5.94 0.99 12 2 C12.66 3.98 13.32 5.96 14 8 C14.66 8 15.32 8 16 8 C16.309375 7.195625 16.61875 6.39125 16.9375 5.5625 C18 3 18 3 19 2 C20.78837622 1.87475541 22.58228214 1.82426324 24.375 1.8125 C25.35210937 1.79832031 26.32921875 1.78414063 27.3359375 1.76953125 C30 2 30 2 33 4 C28.37078475 5.0161692 24.65537393 4.83796731 20 4 C20.69941596 7.14737182 21.76078698 10.02588876 23 13 C22.195625 13.12375 21.39125 13.2475 20.5625 13.375 C19.716875 13.58125 18.87125 13.7875 18 14 C17.67 14.66 17.34 15.32 17 16 C17.7425 15.649375 18.485 15.29875 19.25 14.9375 C22.1322726 13.95490707 23.21176345 13.9673198 26 15 C25.67 16.98 25.34 18.96 25 21 C24.34 20.67 23.68 20.34 23 20 C23 18.68 23 17.36 23 16 C22.030625 16.515625 21.06125 17.03125 20.0625 17.5625 C15.74139395 19.42322117 11.48216607 19.44232635 7 18 C6.34 17.01 5.68 16.02 5 15 C5.33 14.01 5.66 13.02 6 12 C6.45375 12.495 6.9075 12.99 7.375 13.5 C8.87635519 15.22609337 8.87635519 15.22609337 11 15 C11 11.04 11 7.08 11 3 C7.04 3 3.08 3 -1 3 C-0.67 2.01 -0.34 1.02 0 0 Z " fill="#F3C782" transform="translate(91,117)"/>
<path d="M0 0 C1.60517097 0.08733576 3.20921662 0.19552224 4.8125 0.3125 C6.15248047 0.39951172 6.15248047 0.39951172 7.51953125 0.48828125 C10.30604 1.06313581 11.24135754 1.8206856 13 4 C11.25 7.875 11.25 7.875 9 9 C9 9.66 9 10.32 9 11 C9.99 11.33 10.98 11.66 12 12 C11.67 13.32 11.34 14.64 11 16 C10.34 15.34 9.68 14.68 9 14 C9 14.99 9 15.98 9 17 C8.68911632 18.67099977 8.35919668 20.33871537 8 22 C6.35 22.33 4.7 22.66 3 23 C3.144375 22.29875 3.28875 21.5975 3.4375 20.875 C4.01478375 17.92443859 4.51695141 14.96729849 5 12 C1.95613276 11.91773332 -0.07175348 12.02391783 -3 13 C-2.67 12.01 -2.34 11.02 -2 10 C-0.35 10 1.3 10 3 10 C2.34 9.67 1.68 9.34 1 9 C-0.79401325 5.50639525 -1.11665191 3.71425351 0 0 Z " fill="#EFBB5E" transform="translate(111,120)"/>
<path d="M0 0 C7.75 0.75 7.75 0.75 10 3 C9.34 3 8.68 3 8 3 C8.95865509 5.33075929 8.95865509 5.33075929 12 7 C11.67 9.97 11.34 12.94 11 16 C7 17 7 17 4.25 15.8125 C3.13625 14.9153125 3.13625 14.9153125 2 14 C2 12.68 2 11.36 2 10 C1.01 10 0.02 10 -1 10 C-0.67 6.7 -0.34 3.4 0 0 Z " fill="#F7B759" transform="translate(33,116)"/>
<path d="M0 0 C0.99 0 1.98 0 3 0 C3.66 1.65 4.32 3.3 5 5 C5.99 4.01 6.98 3.02 8 2 C9.04561999 5.13685998 9 7.72365939 9 11 C8.4225 10.62875 7.845 10.2575 7.25 9.875 C5 8.70833333 5 8.70833333 2.75 9.875 C1.88375 10.431875 1.88375 10.431875 1 11 C2.65 11.33 4.3 11.66 6 12 C5.01 12.495 5.01 12.495 4 13 C4 13.99 4 14.98 4 16 C1.625 16.125 1.625 16.125 -1 16 C-1.66 15.34 -2.32 14.68 -3 14 C-3.66 14 -4.32 14 -5 14 C-5 13.34 -5 12.68 -5 12 C-5.66 12 -6.32 12 -7 12 C-7.33 12.66 -7.66 13.32 -8 14 C-8.66 12.35 -9.32 10.7 -10 9 C-7.525 9.495 -7.525 9.495 -5 10 C-5.66 9.34 -6.32 8.68 -7 8 C-7.66 7.01 -8.32 6.02 -9 5 C-7.68 5 -6.36 5 -5 5 C-5 4.34 -5 3.68 -5 3 C-4.01 3 -3.02 3 -2 3 C-2.20625 3.94875 -2.4125 4.8975 -2.625 5.875 C-2.74875 6.90625 -2.8725 7.9375 -3 9 C-2.34 9.66 -1.68 10.32 -1 11 C-1.020625 9.741875 -1.04125 8.48375 -1.0625 7.1875 C-1.10886083 4.35948913 -0.91692961 2.75078884 0 0 Z " fill="#3383C0" transform="translate(113,101)"/>
<path d="M0 0 C2.875 0.5 2.875 0.5 6 2 C8.56552606 8.0931244 7.9954054 12.79493288 6 19 C5.67 19.66 5.34 20.32 5 21 C3.02 20.34 1.04 19.68 -1 19 C-1 18.34 -1 17.68 -1 17 C-1.99 17.33 -2.98 17.66 -4 18 C-4.33 17.34 -4.66 16.68 -5 16 C-4.34 15.34 -3.68 14.68 -3 14 C-3 13.01 -3 12.02 -3 11 C-1 12 -1 12 2 14 C1.40138258 11.64828869 0.73075648 9.3140622 0 7 C-0.66 6.67 -1.32 6.34 -2 6 C-1.125 1.125 -1.125 1.125 0 0 Z " fill="#6A9EC4" transform="translate(28,46)"/>
<path d="M0 0 C0.28780586 3.05074215 0.45787911 5.96183742 0 9 C-2.5 11.0625 -2.5 11.0625 -5 12 C-5.66 11.34 -6.32 10.68 -7 10 C-7.66 11.32 -8.32 12.64 -9 14 C-8.01 14.33 -7.02 14.66 -6 15 C-6.33 16.32 -6.66 17.64 -7 19 C-9.475 18.01 -9.475 18.01 -12 17 C-12 16.01 -12 15.02 -12 14 C-12.99 13.67 -13.98 13.34 -15 13 C-13.68 12.67 -12.36 12.34 -11 12 C-11.020625 10.906875 -11.04125 9.81375 -11.0625 8.6875 C-11 5 -11 5 -10 2 C-6.58442859 0.19733731 -3.83134499 -0.218934 0 0 Z " fill="#F8B34D" transform="translate(186,117)"/>
<path d="M0 0 C2.97 0 5.94 0 9 0 C9.77403558 4.06368679 10.0984702 7.86425173 10 12 C5.73173127 12 5.06117568 11.62386487 2 9 C1.525625 9.99 1.05125 10.98 0.5625 12 C-2 15 -2 15 -4.26953125 15.3984375 C-6.53871994 15.37699635 -8.74627444 15.26004526 -11 15 C-11.33 14.34 -11.66 13.68 -12 13 C-9.03 13.33 -6.06 13.66 -3 14 C-2.49307308 12.4188708 -1.99473557 10.83498617 -1.5 9.25 C-1.2215625 8.36828125 -0.943125 7.4865625 -0.65625 6.578125 C0.16445285 3.79732471 0.16445285 3.79732471 0 0 Z " fill="#F1C57B" transform="translate(93,120)"/>
<path d="M0 0 C1.66666667 1.66666667 3.33333333 3.33333333 5 5 C3.10646634 6.89353366 1.15473199 8.4198632 -1 10 C-0.34 10.33 0.32 10.66 1 11 C1 12.32 1 13.64 1 15 C1.66 15.33 2.32 15.66 3 16 C2.01 16.33 1.02 16.66 0 17 C-0.33 17.33 -0.66 17.66 -1 18 C-1 18.825 -1 19.65 -1 20.5 C-1 21.325 -1 22.15 -1 23 C-1.33 23.33 -1.66 23.66 -2 24 C-2.02083333 25.33333333 -1.99070484 26.66756574 -1.9375 28 C-1.86683165 32.89182057 -2.75267889 37.28913544 -4 42 C-2.35 41.34 -0.7 40.68 1 40 C1.33 40.99 1.66 41.98 2 43 C0 45 0 45 -2.625 45.125 C-3.40875 45.08375 -4.1925 45.0425 -5 45 C-4.90619443 40.24909089 -4.80004133 35.49867516 -4.68261719 30.74829102 C-4.64441928 29.1334583 -4.60955055 27.51854316 -4.578125 25.90356445 C-4.53227391 23.57733783 -4.47431416 21.25167408 -4.4140625 18.92578125 C-4.40251129 18.20787918 -4.39096008 17.48997711 -4.37905884 16.75032043 C-4.26159937 12.72856887 -3.71668333 9.63521139 -2 6 C-1.32204472 4.00379834 -0.65266469 2.00461299 0 0 Z " fill="#397AB5" transform="translate(18,69)"/>
<path d="M0 0 C0.66 0.33 1.32 0.66 2 1 C2 2.65 2 4.3 2 6 C3.65 6.33 5.3 6.66 7 7 C7 8.98 7 10.96 7 13 C7.66 13.33 8.32 13.66 9 14 C9.625 16.0625 9.625 16.0625 10 18 C9.01 18.33 8.02 18.66 7 19 C6.34 19.66 5.68 20.32 5 21 C4.01 20.34 3.02 19.68 2 19 C2 18.01 2 17.02 2 16 C0.02 16 -1.96 16 -4 16 C-3.27275406 10.47293087 -1.66554027 5.30039859 0 0 Z M3 9 C3.33 9.99 3.66 10.98 4 12 C4.33 11.01 4.66 10.02 5 9 C4.34 9 3.68 9 3 9 Z " fill="#377AA1" transform="translate(166,100)"/>
<path d="M0 0 C2.375 1.5 2.375 1.5 3.25 4.375 C3.35843983 7.08599578 3.25303259 8.96346142 2.375 11.5 C1.715 9.19 1.055 6.88 0.375 4.5 C-1.275 4.17 -2.925 3.84 -4.625 3.5 C-5.39742269 5.33700789 -5.39742269 5.33700789 -5.625 7.5 C-5.150625 7.95375 -4.67625 8.4075 -4.1875 8.875 C-2.625 10.5 -2.625 10.5 -2.4375 13.6875 C-2.499375 14.615625 -2.56125 15.54375 -2.625 16.5 C-3.945 16.17 -5.265 15.84 -6.625 15.5 C-6.625 16.16 -6.625 16.82 -6.625 17.5 C-7.615 17.83 -8.605 18.16 -9.625 18.5 C-9.955 19.49 -10.285 20.48 -10.625 21.5 C-10.625 20.84 -10.625 20.18 -10.625 19.5 C-11.285 19.5 -11.945 19.5 -12.625 19.5 C-12.315625 18.736875 -12.00625 17.97375 -11.6875 17.1875 C-9.90839037 13.23414674 -9.90839037 13.23414674 -10.375 9.125 C-10.4575 8.25875 -10.54 7.3925 -10.625 6.5 C-4.47027221 -0.85148042 -4.47027221 -0.85148042 0 0 Z " fill="#5A95C4" transform="translate(32.625,43.5)"/>
<path d="M0 0 C0.66 0.33 1.32 0.66 2 1 C2 12.375 2 12.375 -1 17 C-1.66 16.67 -2.32 16.34 -3 16 C-3 15.01 -3 14.02 -3 13 C-4.65 13.66 -6.3 14.32 -8 15 C-7.94008594 13.04081032 -7.85132862 11.08248471 -7.75 9.125 C-7.68039062 7.48917969 -7.68039062 7.48917969 -7.609375 5.8203125 C-7 3 -7 3 -4.953125 1.6171875 C-4.30859375 1.41351563 -3.6640625 1.20984375 -3 1 C-3 1.66 -3 2.32 -3 3 C-2.34 3 -1.68 3 -1 3 C-0.67 2.01 -0.34 1.02 0 0 Z " fill="#3789C4" transform="translate(22,96)"/>
<path d="M0 0 C0.66 0.66 1.32 1.32 2 2 C4.06874034 2.6425235 4.06874034 2.6425235 6 3 C6 3.99 6 4.98 6 6 C6.66 6.33 7.32 6.66 8 7 C8 9.97 8 12.94 8 16 C6.68 16 5.36 16 4 16 C3.67 15.34 3.34 14.68 3 14 C2.01 14.33 1.02 14.66 0 15 C-2.1875 14.0625 -2.1875 14.0625 -4 13 C-3.67 11.68 -3.34 10.36 -3 9 C-2.34 9 -1.68 9 -1 9 C-1.66 6.69 -2.32 4.38 -3 2 C-2.01 1.34 -1.02 0.68 0 0 Z " fill="#418FC9" transform="translate(20,75)"/>
<path d="M0 0 C1.50462847 7.52314235 0.30975121 12.8826174 -3.4375 19.5625 C-5 21 -5 21 -9 21 C-9.33 20.01 -9.66 19.02 -10 18 C-11.49985609 16.33289654 -11.49985609 16.33289654 -13 15 C-11.68 13.68 -10.36 12.36 -9 11 C-8.67 11.99 -8.34 12.98 -8 14 C-5.96116112 13.33576793 -5.96116112 13.33576793 -4 12 C-3.3006486 9.81458448 -3.3006486 9.81458448 -3.25 7.375 C-3.19328125 6.55773437 -3.1365625 5.74046875 -3.078125 4.8984375 C-3.05234375 4.27195312 -3.0265625 3.64546875 -3 3 C-4.65 3 -6.3 3 -8 3 C-3.5 0 -3.5 0 0 0 Z " fill="#F2B759" transform="translate(189,114)"/>
<path d="M0 0 C2 2 2 2 2.0625 4.4375 C1 7 1 7 -2.5625 8.8125 C-3.696875 9.204375 -4.83125 9.59625 -6 10 C-8.5625 7.875 -8.5625 7.875 -11 5 C-10.8125 1.6875 -10.8125 1.6875 -10 -1 C-5.95037684 -2.15703519 -3.74854566 -1.92492885 0 0 Z " fill="#276997" transform="translate(135,70)"/>
<path d="M0 0 C3.125 0.375 3.125 0.375 6 1 C5.2617026 2.75496922 4.50881758 4.50380532 3.75 6.25 C3.12351562 7.71179688 3.12351562 7.71179688 2.484375 9.203125 C0.92337942 12.14436931 -0.36268251 13.9687447 -3 16 C-6.72563576 16.78405978 -10.26039354 16.70481679 -14 16 C-16.1875 13.5 -16.1875 13.5 -17 11 C-16.34 11 -15.68 11 -15 11 C-14.608125 11.495 -14.21625 11.99 -13.8125 12.5 C-11.03989283 14.79457145 -8.4681874 14.19631249 -5 14 C-5 13.01 -5 12.02 -5 11 C-5 10.34 -5 9.68 -5 9 C-5.66 9 -6.32 9 -7 9 C-6.67 8.34 -6.34 7.68 -6 7 C-5.34 7.33 -4.68 7.66 -4 8 C-3.71125 7.05125 -3.4225 6.1025 -3.125 5.125 C-2 2 -2 2 0 0 Z " fill="#EABD77" transform="translate(69,115)"/>
<path d="M0 0 C1.65 0 3.3 0 5 0 C4.67 2.64 4.34 5.28 4 8 C4.99 7.67 5.98 7.34 7 7 C6.88590407 8.45922693 6.75834456 9.91740598 6.625 11.375 C6.55539063 12.18710938 6.48578125 12.99921875 6.4140625 13.8359375 C6 16 6 16 4 18 C2.57055055 15.64561267 1.91338739 14.51967567 2.375 11.75 C2.58125 11.1725 2.7875 10.595 3 10 C2.01 10.33 1.02 10.66 0 11 C0.33 11.66 0.66 12.32 1 13 C0.39421747 15.01927511 -0.26919734 17.02253397 -1 19 C-1.66 19 -2.32 19 -3 19 C-4.4583668 16.54380329 -5.19219551 14.8301554 -4.53515625 11.9921875 C-3.3042266 8.67296426 -1.97503823 5.96255735 0 3 C0 2.01 0 1.02 0 0 Z " fill="#4D93C9" transform="translate(141,96)"/>
<path d="M0 0 C0 2.31 0 4.62 0 7 C-3.46222615 8.06723961 -6.64039266 8.10173486 -10.25 8.0625 C-11.32765625 8.05347656 -12.4053125 8.04445312 -13.515625 8.03515625 C-14.33546875 8.02355469 -15.1553125 8.01195312 -16 8 C-15.67 6.68 -15.34 5.36 -15 4 C-14.67 4.66 -14.34 5.32 -14 6 C-13.34 5.67 -12.68 5.34 -12 5 C-11.34786708 2.97536745 -11.34786708 2.97536745 -11 1 C-13.31 1 -15.62 1 -18 1 C-18 0.67 -18 0.34 -18 0 C-15.56288386 -0.19484938 -13.12562602 -0.38115178 -10.6875 -0.5625 C-9.99720703 -0.61857422 -9.30691406 -0.67464844 -8.59570312 -0.73242188 C-5.37487726 -0.96581505 -3.09672655 -1.03224218 0 0 Z " fill="#E6CD9A" transform="translate(114,140)"/>
<path d="M0 0 C0.78375 0.2475 1.5675 0.495 2.375 0.75 C3.61387548 3.22775095 3.54241669 4.98653707 3.5625 7.75 C3.57667969 8.636875 3.59085938 9.52375 3.60546875 10.4375 C3.375 12.75 3.375 12.75 1.375 14.75 C-1.75 14.375 -1.75 14.375 -4.625 13.75 C-4.955 12.43 -5.285 11.11 -5.625 9.75 C-4.635 9.42 -3.645 9.09 -2.625 8.75 C-2.97286708 6.77463255 -2.97286708 6.77463255 -3.625 4.75 C-4.285 4.42 -4.945 4.09 -5.625 3.75 C-5.625 3.09 -5.625 2.43 -5.625 1.75 C-2.625 -0.25 -2.625 -0.25 0 0 Z " fill="#2276B5" transform="translate(157.625,100.25)"/>
<path d="M0 0 C0.99 0 1.98 0 3 0 C2.938125 0.928125 2.87625 1.85625 2.8125 2.8125 C2.6685437 5.97790291 2.6685437 5.97790291 4.5 7.6875 C4.995 8.120625 5.49 8.55375 6 9 C6 9.99 6 10.98 6 12 C1.545 13.485 1.545 13.485 -3 15 C-5.09749995 12.64031256 -5.96905704 11.45383006 -6.1875 8.25 C-6.125625 7.5075 -6.06375 6.765 -6 6 C-4.68 5.67 -3.36 5.34 -2 5 C-1.855625 4.360625 -1.71125 3.72125 -1.5625 3.0625 C-1 1 -1 1 0 0 Z " fill="#2677B0" transform="translate(178,102)"/>
<path d="M0 0 C1.2065625 0.0309375 1.2065625 0.0309375 2.4375 0.0625 C4.04105101 3.57026784 4.65786864 6.20604879 4.4375 10.0625 C1.15053767 10.86203138 -0.27273192 11.15908936 -3.5625 10.0625 C-3.2325 11.3825 -2.9025 12.7025 -2.5625 14.0625 C-3.5525 14.0625 -4.5425 14.0625 -5.5625 14.0625 C-7.03272475 8.5825714 -6.04819348 5.93828336 -3.5625 1.0625 C-2.5625 0.0625 -2.5625 0.0625 0 0 Z " fill="#5598C0" transform="translate(75.5625,90.9375)"/>
<path d="M0 0 C1.32 0.33 2.64 0.66 4 1 C5.01689735 4.94047721 5.05293289 8.58815707 4.9375 12.62109375 C4.96142167 15.62221932 4.96142167 15.62221932 6 21 C1.38 20.01 -3.24 19.02 -8 18 C-8 17.01 -8 16.02 -8 15 C-7.0925 15.061875 -6.185 15.12375 -5.25 15.1875 C-1.67124653 14.98103345 -0.37869491 14.65315971 2 12 C2.41112802 8.79320141 1.91307373 6.08162384 1 3 C0.34 3 -0.32 3 -1 3 C-0.67 2.01 -0.34 1.02 0 0 Z " fill="#396EA3" transform="translate(39,96)"/>
<path d="M0 0 C1.1446875 0.12375 1.1446875 0.12375 2.3125 0.25 C2.6425 1.24 2.9725 2.23 3.3125 3.25 C2.3225 3.745 2.3225 3.745 1.3125 4.25 C0.9825 5.24 0.6525 6.23 0.3125 7.25 C1.3025 7.58 2.2925 7.91 3.3125 8.25 C1.97916667 9.58333333 0.64583333 10.91666667 -0.6875 12.25 C-2.8394437 15.47791555 -2.88836443 16.53400809 -2.6875 20.25 C-3.6775 19.59 -4.6675 18.93 -5.6875 18.25 C-6.3475 18.58 -7.0075 18.91 -7.6875 19.25 C-8.0175 18.26 -8.3475 17.27 -8.6875 16.25 C-8.23375 15.651875 -7.78 15.05375 -7.3125 14.4375 C-5.28653147 11.71023467 -4.97909802 9.60337721 -4.6875 6.25 C-5.0175 5.59 -5.3475 4.93 -5.6875 4.25 C-3.34903846 0.31153846 -3.34903846 0.31153846 0 0 Z " fill="#4A95CF" transform="translate(62.6875,89.75)"/>
<path d="M0 0 C0.57234375 0.21527344 1.1446875 0.43054688 1.734375 0.65234375 C1.609375 2.40234375 1.609375 2.40234375 0.734375 4.65234375 C-2.328125 6.90234375 -2.328125 6.90234375 -5.265625 8.65234375 C-3.76726395 11.7643244 -2.06628742 14.70580525 -0.265625 17.65234375 C-6.665625 20.72926683 -6.665625 20.72926683 -9.703125 20.33984375 C-10.21875 20.11296875 -10.734375 19.88609375 -11.265625 19.65234375 C-8.265625 17.65234375 -8.265625 17.65234375 -4.265625 17.65234375 C-5.2865625 16.35296875 -5.2865625 16.35296875 -6.328125 15.02734375 C-8.265625 11.65234375 -8.265625 11.65234375 -8.015625 8.27734375 C-7.768125 7.41109375 -7.520625 6.54484375 -7.265625 5.65234375 C-8.255625 5.32234375 -9.245625 4.99234375 -10.265625 4.65234375 C-9.02618224 3.78292881 -7.77355441 2.93228918 -6.515625 2.08984375 C-5.81953125 1.61417969 -5.1234375 1.13851562 -4.40625 0.6484375 C-2.265625 -0.34765625 -2.265625 -0.34765625 0 0 Z " fill="#2B6EA0" transform="translate(188.265625,96.34765625)"/>
<path d="M0 0 C1.98 0 3.96 0 6 0 C6 0.99 6 1.98 6 3 C6.99 2.34 7.98 1.68 9 1 C10.32 1 11.64 1 13 1 C12.57742724 2.4835001 12.13643678 3.96176424 11.6875 5.4375 C11.32205078 6.67306641 11.32205078 6.67306641 10.94921875 7.93359375 C10.63597656 8.61550781 10.32273438 9.29742187 10 10 C9.01 10.33 8.02 10.66 7 11 C6.236875 10.195625 5.47375 9.39125 4.6875 8.5625 C2.20569102 5.83200976 2.20569102 5.83200976 -1 5 C-0.67 3.35 -0.34 1.7 0 0 Z " fill="#F2BF6F" transform="translate(153,117)"/>
<path d="M0 0 C0.66 0.33 1.32 0.66 2 1 C2.59765625 3.21484375 2.59765625 3.21484375 3.0625 5.9375 C3.66805467 9.58772209 3.66805467 9.58772209 5 13 C4.67 13.66 4.34 14.32 4 15 C2.35 15 0.7 15 -1 15 C-1.33 12.36 -1.66 9.72 -2 7 C-3.98 7.99 -3.98 7.99 -6 9 C-6.66 6.36 -7.32 3.72 -8 1 C-5.36 1.33 -2.72 1.66 0 2 C0 1.34 0 0.68 0 0 Z " fill="#3181B8" transform="translate(80,100)"/>
<path d="M0 0 C1.43836751 0.11458693 2.87570966 0.24209116 4.3125 0.375 C5.51326172 0.47941406 5.51326172 0.47941406 6.73828125 0.5859375 C9 1 9 1 12 3 C12 3.99 12 4.98 12 6 C11.01 6 10.02 6 9 6 C9 6.99 9 7.98 9 9 C8.01 9 7.02 9 6 9 C5.67 9.66 5.34 10.32 5 11 C2.03 10.505 2.03 10.505 -1 10 C-1.09978121 6.50765756 -0.77842938 3.40562852 0 0 Z " fill="#2D80BD" transform="translate(16,88)"/>
<path d="M0 0 C5.61 0 11.22 0 17 0 C17.33 1.32 17.66 2.64 18 4 C19.28796166 6.02951535 20.61558 8.03501678 22 10 C21.01 9.67 20.02 9.34 19 9 C19 8.34 19 7.68 19 7 C18.01 7.33 17.02 7.66 16 8 C13.3125 6.5625 13.3125 6.5625 11 5 C10.67 5.66 10.34 6.32 10 7 C8.02 7 6.04 7 4 7 C4.33 5.35 4.66 3.7 5 2 C4.21625 2.515625 3.4325 3.03125 2.625 3.5625 C1.75875 4.036875 0.8925 4.51125 0 5 C-0.66 4.67 -1.32 4.34 -2 4 C-1.34 2.68 -0.68 1.36 0 0 Z " fill="#F5D59C" transform="translate(136,117)"/>
<path d="M0 0 C1.423125 0.2784375 1.423125 0.2784375 2.875 0.5625 C5.89868793 1.28686632 5.89868793 1.28686632 8 0 C9.94347497 0.23058178 11.88671212 0.46590685 13.82421875 0.7421875 C16.90424552 1.10714579 19.90131312 1.06455598 23 1 C23.33 2.98 23.66 4.96 24 7 C23.01 7.66 22.02 8.32 21 9 C20.67 8.34 20.34 7.68 20 7 C17.97666066 6.53157288 17.97666066 6.53157288 15.625 6.375 C14.83351563 6.30023438 14.04203125 6.22546875 13.2265625 6.1484375 C11.48753275 6.03250218 9.74288998 6 8 6 C8 5.34 8 4.68 8 4 C7.236875 3.855625 6.47375 3.71125 5.6875 3.5625 C3 3 3 3 0 2 C0 1.34 0 0.68 0 0 Z " fill="#E7C07E" transform="translate(38,115)"/>
<path d="M0 0 C0 0.33 0 0.66 0 1 C-7.92 1.33 -15.84 1.66 -24 2 C-23.34 4.97 -22.68 7.94 -22 11 C-22.33 11.33 -22.66 11.66 -23 12 C-23.26293056 16.03160191 -23.29404844 17.55892734 -21 21 C-18.67182036 21.36760731 -16.3381615 21.70241581 -14 22 C-13.67 22.66 -13.34 23.32 -13 24 C-14.62600941 23.9129995 -16.25089678 23.8048219 -17.875 23.6875 C-18.77992187 23.62949219 -19.68484375 23.57148438 -20.6171875 23.51171875 C-23 23 -23 23 -25 20 C-25.44921875 16.85546875 -25.44921875 16.85546875 -25.6875 13.1875 C-25.77386719 11.98480469 -25.86023437 10.78210938 -25.94921875 9.54296875 C-25.99704586 6.20610786 -25.66438836 3.26199696 -25 0 C-16.19898634 -2.33029203 -8.69292648 -2.95929412 0 0 Z " fill="#D6C394" transform="translate(37,114)"/>
<path d="M0 0 C0.66 0 1.32 0 2 0 C1.0896861 5.72197309 1.0896861 5.72197309 0.375 7.9375 C-0.1629439 10.25628146 -0.1629439 10.25628146 0.5625 13.625 C0.706875 14.73875 0.85125 15.8525 1 17 C0.34 17.66 -0.32 18.32 -1 19 C0.32 19.99 1.64 20.98 3 22 C-3.4 23.23076923 -3.4 23.23076923 -6.4375 22.0625 C-7.2109375 21.5365625 -7.2109375 21.5365625 -8 21 C-8 20.01 -8 19.02 -8 18 C-7.34 18 -6.68 18 -6 18 C-5.81824219 17.45472656 -5.63648438 16.90945312 -5.44921875 16.34765625 C-3.6328125 10.8984375 -1.81640625 5.44921875 0 0 Z " fill="#2D71A9" transform="translate(53,94)"/>
<path d="M0 0 C0 1.65 0 3.3 0 5 C-0.99 5.495 -0.99 5.495 -2 6 C-2.61272305 8.08807 -2.61272305 8.08807 -3 10.5 C-3.4375 12.96875 -3.4375 12.96875 -4 15 C-4.66 15.33 -5.32 15.66 -6 16 C-6.78102265 12.97441677 -7.4453103 9.93808962 -8.0625 6.875 C-8.23910156 6.00617188 -8.41570312 5.13734375 -8.59765625 4.2421875 C-9 2 -9 2 -9 0 C-5.93109813 -1.53445094 -3.29905734 -0.54984289 0 0 Z " fill="#5D97B8" transform="translate(90,99)"/>
<path d="M0 0 C2.625 0.25 2.625 0.25 4.4375 1.75 C4.829375 2.245 5.22125 2.74 5.625 3.25 C4.305 3.25 2.985 3.25 1.625 3.25 C1.295 5.23 0.965 7.21 0.625 9.25 C-0.035 8.92 -0.695 8.59 -1.375 8.25 C-2.85555721 12.09944874 -1.71085208 14.47818235 -0.375 18.25 C-0.375 19.57 -0.375 20.89 -0.375 22.25 C-2.3125 21.9375 -2.3125 21.9375 -4.375 21.25 C-4.705 20.26 -5.035 19.27 -5.375 18.25 C-5.045 17.59 -4.715 16.93 -4.375 16.25 C-4.560625 15.404375 -4.74625 14.55875 -4.9375 13.6875 C-5.5024077 9.24893952 -4.68239964 5.50352623 -3.375 1.25 C-2.375 0.25 -2.375 0.25 0 0 Z " fill="#2D76A4" transform="translate(125.375,88.75)"/>
<path d="M0 0 C0.66 0.33 1.32 0.66 2 1 C2.37730162 7.16259312 1.96435433 11.52734586 -1 17 C-1.66 17.33 -2.32 17.66 -3 18 C-5.125 17.0625 -5.125 17.0625 -7 16 C-6.67 15.34 -6.34 14.68 -6 14 C-6.89163577 11.88316159 -6.89163577 11.88316159 -8 10 C-7.01 9.01 -6.02 8.02 -5 7 C-4.67 7.99 -4.34 8.98 -4 10 C-3.34 10 -2.68 10 -2 10 C-1.30732799 7.66223195 -1 5.76838497 -1 3.3125 C-1 1 -1 1 0 0 Z " fill="#F3BB65" transform="translate(26,119)"/>
<path d="M0 0 C0.61875 0.474375 1.2375 0.94875 1.875 1.4375 C3.90705546 3.02417441 3.90705546 3.02417441 6 4 C6 3.01 6 2.02 6 1 C6.66 1.33 7.32 1.66 8 2 C9.00376838 6.0150735 9.40779739 8.16667491 7.5625 11.9375 C6.7890625 12.9584375 6.7890625 12.9584375 6 14 C5.34 13.01 4.68 12.02 4 11 C1.94074861 10.27617533 1.94074861 10.27617533 0 10 C0 8.02 0 6.04 0 4 C-0.66 3.67 -1.32 3.34 -2 3 C-2 2.34 -2 1.68 -2 1 C-1.34 0.67 -0.68 0.34 0 0 Z " fill="#F5BF6D" transform="translate(124,126)"/>
<path d="M0 0 C2.97 0 5.94 0 9 0 C9 1.98 9 3.96 9 6 C8.34 6 7.68 6 7 6 C7 4.68 7 3.36 7 2 C5.02 2 3.04 2 1 2 C1.33 3.32 1.66 4.64 2 6 C2.99 6 3.98 6 5 6 C5 6.66 5 7.32 5 8 C5.33 8.66 5.66 9.32 6 10 C5.06553465 12.03144641 4.06775224 14.03533587 3 16 C0 14 0 14 -0.80078125 11.7578125 C-0.96964844 10.88898438 -1.13851562 10.02015625 -1.3125 9.125 C-1.49425781 8.26132813 -1.67601563 7.39765625 -1.86328125 6.5078125 C-2 4 -2 4 0 0 Z " fill="#FBC877" transform="translate(78,116)"/>
<path d="M0 0 C0.99 0.33 1.98 0.66 3 1 C2.95875 1.763125 2.9175 2.52625 2.875 3.3125 C2.77919176 6.22718416 2.77919176 6.22718416 5 9 C5 9.99 5 10.98 5 12 C2.59454362 13.20272819 1.05003047 13.10071472 -1.625 13.0625 C-2.85089844 13.04896484 -2.85089844 13.04896484 -4.1015625 13.03515625 C-5.04128906 13.01775391 -5.04128906 13.01775391 -6 13 C-6 11.02 -6 9.04 -6 7 C-5.01 7 -4.02 7 -3 7 C-3 7.99 -3 8.98 -3 10 C-2.34 10 -1.68 10 -1 10 C-0.32326553 6.59679066 -0.32326553 6.59679066 0 3 C-0.66 2.34 -1.32 1.68 -2 1 C-1.34 0.67 -0.68 0.34 0 0 Z " fill="#5799C3" transform="translate(141,105)"/>
<path d="M0 0 C2 2 2 2 2.25 5.25 C2.00879145 8.8681282 1.31162801 11.63895322 0 15 C-1.32 15 -2.64 15 -4 15 C-4 14.34 -4 13.68 -4 13 C-3.34 12.67 -2.68 12.34 -2 12 C-2 10.68 -2 9.36 -2 8 C-2.99 8.33 -3.98 8.66 -5 9 C-4.79375 8.38125 -4.5875 7.7625 -4.375 7.125 C-4.25125 6.42375 -4.1275 5.7225 -4 5 C-4.66 4.34 -5.32 3.68 -6 3 C-6.99 3 -7.98 3 -9 3 C-6.40257043 -0.46323942 -4.16948329 -0.44356205 0 0 Z " fill="#2A689F" transform="translate(175,86)"/>
<path d="M0 0 C2.475 0.99 2.475 0.99 5 2 C4.95875 3.19625 4.9175 4.3925 4.875 5.625 C4.86148292 9.42329953 5.57990247 12.44975618 7 16 C4.36 16 1.72 16 -1 16 C-1 12 -1 12 1 10 C0.195625 8.63875 0.195625 8.63875 -0.625 7.25 C-2 4 -2 4 -1.1875 1.625 C-0.795625 1.08875 -0.40375 0.5525 0 0 Z " fill="#6D95AD" transform="translate(127,104)"/>
<path d="M0 0 C1.41554787 2.61331914 2.58131312 5.30718129 3.6875 8.0625 C3.95949219 8.73410156 4.23148438 9.40570313 4.51171875 10.09765625 C5 12 5 12 4 15 C3.34 14.34 2.68 13.68 2 13 C2 11.68 2 10.36 2 9 C1.01 9 0.02 9 -1 9 C-1 12.63 -1 16.26 -1 20 C-1.99 20 -2.98 20 -4 20 C-5.2077558 16.37673261 -4.54311128 15.35853631 -3 12 C-3.99 11.67 -4.98 11.34 -6 11 C-5.34 11 -4.68 11 -4 11 C-4.33 10.01 -4.66 9.02 -5 8 C-3.02 7.67 -1.04 7.34 1 7 C0.67 6.34 0.34 5.68 0 5 C-1.32 5 -2.64 5 -4 5 C-4 4.34 -4 3.68 -4 3 C-2 1.375 -2 1.375 0 0 Z " fill="#2B7AB4" transform="translate(114,92)"/>
<path d="M0 0 C2.31 0 4.62 0 7 0 C7.70074844 3.153368 8 5.72724974 8 9 C5.69 9.66 3.38 10.32 1 11 C0.63743142 9.5437328 0.28520207 8.08488815 -0.0625 6.625 C-0.35833984 5.40683594 -0.35833984 5.40683594 -0.66015625 4.1640625 C-1 2 -1 2 0 0 Z " fill="#FADBA9" transform="translate(121,145)"/>
<path d="M0 0 C0.99 0 1.98 0 3 0 C3.66 1.65 4.32 3.3 5 5 C5.99 4.01 6.98 3.02 8 2 C9.04561999 5.13685998 9 7.72365939 9 11 C7.68 10.34 6.36 9.68 5 9 C4.01 9.66 3.02 10.32 2 11 C1.01 11 0.02 11 -1 11 C-1.125 3.375 -1.125 3.375 0 0 Z " fill="#408EC6" transform="translate(113,101)"/>
<path d="M0 0 C1.32 0.33 2.64 0.66 4 1 C4.24200341 5.11405794 3.44170483 8.15545379 2 12 C1.505 13.3921875 1.505 13.3921875 1 14.8125 C0 17 0 17 -2 18 C-2.144375 17.0925 -2.28875 16.185 -2.4375 15.25 C-2.88744201 12.14023469 -2.88744201 12.14023469 -3.75 9.8125 C-3.8325 9.214375 -3.915 8.61625 -4 8 C-3.02246356 6.97803008 -2.0194119 5.98020375 -1 5 C-0.27802838 2.39388923 -0.27802838 2.39388923 0 0 Z " fill="#3285C1" transform="translate(126,91)"/>
<path d="M0 0 C0.66 0 1.32 0 2 0 C2.96398076 3.6806538 3.18318179 5.54204553 1.75 9.125 C0 12 0 12 -1.625 14 C-3.40683761 16.5917638 -3.6489064 18.91037631 -4 22 C-4.99 22.33 -5.98 22.66 -7 23 C-7.33 22.01 -7.66 21.02 -8 20 C-7.34 19.67 -6.68 19.34 -6 19 C-6 16.69 -6 14.38 -6 12 C-5.34 11.67 -4.68 11.34 -4 11 C-3.67 10.01 -3.34 9.02 -3 8 C-2.01 7.67 -1.02 7.34 0 7 C-0.66 6.67 -1.32 6.34 -2 6 C-1.49396008 3.83125748 -1.00016187 2.00032373 0 0 Z " fill="#3A79A4" transform="translate(65,91)"/>
<path d="M0 0 C-2.97 0 -5.94 0 -9 0 C-9 0.99 -9 1.98 -9 3 C-8.34 3.33 -7.68 3.66 -7 4 C-7.66 4 -8.32 4 -9 4 C-9 4.66 -9 5.32 -9 6 C-12.3 5.67 -15.6 5.34 -19 5 C-19 3.68 -19 2.36 -19 1 C-17.865625 0.855625 -16.73125 0.71125 -15.5625 0.5625 C-12.19222799 0.38828522 -12.19222799 0.38828522 -11 -1 C-6.17169942 -2.00210012 -4.53815546 -2.26907773 0 0 Z " fill="#EADAA6" transform="translate(34,141)"/>
<path d="M0 0 C0 1.65 0 3.3 0 5 C-3 6 -3 6 -5 6 C-6.66965451 6.31802943 -8.33678518 6.64984951 -10 7 C-10 5.68 -10 4.36 -10 3 C-10.99 3 -11.98 3 -13 3 C-13 2.34 -13 1.68 -13 1 C-8.31506124 -1.48887372 -5.0555786 -0.85687773 0 0 Z M-8 3 C-7.67 3.66 -7.34 4.32 -7 5 C-6.67 4.34 -6.34 3.68 -6 3 C-6.66 3 -7.32 3 -8 3 Z " fill="#F2D69C" transform="translate(103,141)"/>
<path d="M0 0 C0.99 0.33 1.98 0.66 3 1 C2.835 1.54398437 2.67 2.08796875 2.5 2.6484375 C1.91995512 5.37646109 1.93991776 7.83868613 2 10.625 C2.11053985 15.77892031 2.11053985 15.77892031 1 18 C1.99 18.33 2.98 18.66 4 19 C1.69 19 -0.62 19 -3 19 C-2.835 18.236875 -2.67 17.47375 -2.5 16.6875 C-1.90854604 13.96403764 -1.90854604 13.96403764 -2 11 C-1.87346924 9.66469662 -1.72638314 8.33123531 -1.5625 7 C-1.48128906 6.319375 -1.40007813 5.63875 -1.31640625 4.9375 C-1 3 -1 3 0 0 Z " fill="#4687B2" transform="translate(25,94)"/>
<path d="M0 0 C0.66 0.33 1.32 0.66 2 1 C2 2.98 2 4.96 2 7 C2.99 7.33 3.98 7.66 5 8 C5.33 8.99 5.66 9.98 6 11 C4.8125 12.5 4.8125 12.5 3 14 C0.3125 14.1875 0.3125 14.1875 -2 14 C-3.21065165 10.36804504 -2.62784815 8.93468371 -1.5625 5.3125 C-1.27503906 4.31863281 -0.98757812 3.32476562 -0.69140625 2.30078125 C-0.46324219 1.54152344 -0.23507813 0.78226562 0 0 Z " fill="#4781AD" transform="translate(130,92)"/>
<path d="M0 0 C2.31 0.33 4.62 0.66 7 1 C7 5 7 5 6 8 C3.03 8 0.06 8 -3 8 C-3 7.01 -3 6.02 -3 5 C-2.34 5 -1.68 5 -1 5 C-0.67 3.35 -0.34 1.7 0 0 Z " fill="#3081BE" transform="translate(170,99)"/>
<path d="M0 0 C4.95 0 9.9 0 15 0 C15 0.99 15 1.98 15 3 C15.99 3.33 16.98 3.66 18 4 C18.33 5.65 18.66 7.3 19 9 C17.0625 8.625 17.0625 8.625 15 8 C14.67 7.34 14.34 6.68 14 6 C13.01 6 12.02 6 11 6 C11.66 4.68 12.32 3.36 13 2 C10.69 2.66 8.38 3.32 6 4 C6 3.01 6 2.02 6 1 C4.02 1 2.04 1 0 1 C0 0.67 0 0.34 0 0 Z " fill="#DBC18C" transform="translate(153,116)"/>
<path d="M0 0 C0.99 1.32 1.98 2.64 3 4 C2.67 4.33 2.34 4.66 2 5 C1.97916667 6.33333333 2.00929516 7.66756574 2.0625 9 C2.13316835 13.89182057 1.24732111 18.28913544 0 23 C1.65 22.34 3.3 21.68 5 21 C5.33 21.99 5.66 22.98 6 24 C5.34 24.66 4.68 25.32 4 26 C2.35 26 0.7 26 -1 26 C-0.67 17.42 -0.34 8.84 0 0 Z " fill="#3D75A5" transform="translate(14,88)"/>
<path d="M0 0 C0.99 1.32 1.98 2.64 3 4 C1.68 6.31 0.36 8.62 -1 11 C-0.34 11 0.32 11 1 11 C0 13 0 13 -1.4375 15.0625 C-3.48182312 18.90582747 -4.21221898 22.74598247 -5 27 C-5.33 27 -5.66 27 -6 27 C-5.54882427 17.52530959 -2.82545745 8.98724843 0 0 Z " fill="#4E84A4" transform="translate(21,52)"/>
<path d="M0 0 C0.66 0 1.32 0 2 0 C2 0.66 2 1.32 2 2 C2.99 1.67 3.98 1.34 5 1 C5.66 1.66 6.32 2.32 7 3 C9.06874034 3.6425235 9.06874034 3.6425235 11 4 C11 3.01 11 2.02 11 1 C11.66 1 12.32 1 13 1 C13 1.99 13 2.98 13 4 C13.99 4 14.98 4 16 4 C16 4.66 16 5.32 16 6 C17.32 6.33 18.64 6.66 20 7 C14.39 7 8.78 7 3 7 C2.67 6.01 2.34 5.02 2 4 C1.34 3.67 0.68 3.34 0 3 C0 2.01 0 1.02 0 0 Z " fill="#547E93" transform="translate(106,113)"/>
<path d="M0 0 C3.96 0 7.92 0 12 0 C11.67 1.32 11.34 2.64 11 4 C6.71 4 2.42 4 -2 4 C-1.34 2.68 -0.68 1.36 0 0 Z " fill="#D6D0AF" transform="translate(170,142)"/>
<path d="M0 0 C0.66 0 1.32 0 2 0 C2.66 1.65 3.32 3.3 4 5 C6.31 5.33 8.62 5.66 11 6 C11 5.34 11 4.68 11 4 C11.66 4 12.32 4 13 4 C13 3.34 13 2.68 13 2 C13.66 2 14.32 2 15 2 C15 1.34 15 0.68 15 0 C15.66 0.33 16.32 0.66 17 1 C13.25 7.875 13.25 7.875 11 9 C7.40129038 9.39116409 5.65560381 9.47841359 2.6875 7.3125 C0.85698398 4.80401508 0.33990796 3.05917167 0 0 Z " fill="#E5C587" transform="translate(33,126)"/>
<path d="M0 0 C2.875 0.5 2.875 0.5 6 2 C7.18275852 4.68310961 7.52711756 7.0681289 8 10 C6.35 10.66 4.7 11.32 3 12 C3 10.35 3 8.7 3 7 C1.35 6.67 -0.3 6.34 -2 6 C-1.125 1.125 -1.125 1.125 0 0 Z " fill="#7BAFD3" transform="translate(28,46)"/>
<path d="M0 0 C0.99 1.98 1.98 3.96 3 6 C2.01 7.485 2.01 7.485 1 9 C1 7.35 1 5.7 1 4 C-2.41642759 3.74984127 -2.41642759 3.74984127 -6 4 C-6.99 5.485 -6.99 5.485 -8 7 C-8.66 7 -9.32 7 -10 7 C-10.33 7.66 -10.66 8.32 -11 9 C-11.33 7.35 -11.66 5.7 -12 4 C-7.99899414 0.12023674 -5.51903037 -0.43286513 0 0 Z " fill="#578EBB" transform="translate(66,87)"/>
<path d="M0 0 C0.66 0 1.32 0 2 0 C1.52 4.56 1.52 4.56 -0.625 6.375 C-4.077676 7.28359895 -6.55324192 6.86168952 -10 6 C-12.4375 4 -12.4375 4 -14 2 C-14 1.67 -14 1.34 -14 1 C-12.35 1 -10.7 1 -9 1 C-8.34 2.32 -7.68 3.64 -7 5 C-4.69 4.01 -2.38 3.02 0 2 C0 1.34 0 0.68 0 0 Z " fill="#F7D6A6" transform="translate(150,125)"/>
<path d="M0 0 C1.49636984 7.48184922 0.42769883 13.01857391 -3.5625 19.5625 C-4.036875 20.036875 -4.51125 20.51125 -5 21 C-5.66 21 -6.32 21 -7 21 C-7 20.34 -7 19.68 -7 19 C-6.34 19 -5.68 19 -5 19 C-2.70657253 13.10261508 -1.65451286 8.33393082 -2 2 C-2.99 1.67 -3.98 1.34 -5 1 C-3 0 -3 0 0 0 Z " fill="#D7BD88" transform="translate(189,114)"/>
<path d="M0 0 C1.32 0 2.64 0 4 0 C5.00821159 2.68856424 5.22736824 4.41703215 4.17578125 7.11328125 C3.16604698 9.10794931 2.11893353 11.0646772 1 13 C0.34 13 -0.32 13 -1 13 C-0.814375 11.88625 -0.62875 10.7725 -0.4375 9.625 C0.31680657 6.17431139 0.31680657 6.17431139 -1 4 C-0.5625 1.875 -0.5625 1.875 0 0 Z " fill="#ECB55B" transform="translate(89,120)"/>
<path d="M0 0 C0.99 0 1.98 0 3 0 C3.08096803 1.45742463 3.13917774 2.91612807 3.1875 4.375 C3.22230469 5.18710938 3.25710937 5.99921875 3.29296875 6.8359375 C3.19628906 7.55007812 3.09960938 8.26421875 3 9 C0 11 0 11 -3 11 C-2.88590407 9.54077307 -2.75834456 8.08259402 -2.625 6.625 C-2.55539063 5.81289062 -2.48578125 5.00078125 -2.4140625 4.1640625 C-2 2 -2 2 0 0 Z " fill="#1B77B6" transform="translate(178,102)"/>
<path d="M0 0 C2.31 0 4.62 0 7 0 C7 0.99 7 1.98 7 3 C2.25 4.125 2.25 4.125 0 3 C-0.12375 3.763125 -0.2475 4.52625 -0.375 5.3125 C-1 8 -1 8 -3 11 C-3.66 11 -4.32 11 -5 11 C-5.33 10.01 -5.66 9.02 -6 8 C-5.01 7.34 -4.02 6.68 -3 6 C-1.93753473 4.03247172 -0.92862192 2.03412421 0 0 Z " fill="#E4CF9E" transform="translate(133,142)"/>
<path d="M0 0 C1.125 1.6875 1.125 1.6875 2 4 C1.125 6.75 1.125 6.75 0 9 C-2 9 -2 9 -3.5625 7.5 C-4.036875 7.005 -4.51125 6.51 -5 6 C-5.33 6 -5.66 6 -6 6 C-6 4.35 -6 2.7 -6 1 C-3 0 -3 0 0 0 Z " fill="#F3BD6A" transform="translate(19,115)"/>
<path d="M0 0 C0.33 0 0.66 0 1 0 C1.6319296 6.00333124 -0.62455877 10.63404795 -3 16 C-7.95 16.495 -7.95 16.495 -13 17 C-13 15.68 -13 14.36 -13 13 C-12.34 13 -11.68 13 -11 13 C-11 13.66 -11 14.32 -11 15 C-9.02 14.67 -7.04 14.34 -5 14 C-4.34 10.7 -3.68 7.4 -3 4 C-2.01 4 -1.02 4 0 4 C0 2.68 0 1.36 0 0 Z " fill="#4F7D9F" transform="translate(90,100)"/>
<path d="M0 0 C1.916588 -0.02712153 3.8332873 -0.04645097 5.75 -0.0625 C7.35101563 -0.07990234 7.35101563 -0.07990234 8.984375 -0.09765625 C11.53368501 -0.01510087 13.57933591 0.25382442 16 1 C16 1.66 16 2.32 16 3 C14.35 3.66 12.7 4.32 11 5 C10.01 4.01 9.02 3.02 8 2 C7.67 2.99 7.34 3.98 7 5 C6.67 4.01 6.34 3.02 6 2 C5.01 2 4.02 2 3 2 C2.34 3.32 1.68 4.64 1 6 C0.67 4.02 0.34 2.04 0 0 Z " fill="#DDC391" transform="translate(39,140)"/>
<path d="M0 0 C1.5625 1.75 1.5625 1.75 3 4 C2.6875 6.25 2.6875 6.25 2 8 C-0.31 8.33 -2.62 8.66 -5 9 C-5 6.69 -5 4.38 -5 2 C-3.68 2.33 -2.36 2.66 -1 3 C-0.67 2.01 -0.34 1.02 0 0 Z " fill="#3C89BF" transform="translate(31,103)"/>
<path d="M0 0 C3 2 3 2 3.5 4.375 C3 7 3 7 0.625 9.3125 C-2 11 -2 11 -4 11 C-3.67 9.35 -3.34 7.7 -3 6 C-2.34 6 -1.68 6 -1 6 C-1 5.34 -1 4.68 -1 4 C-1.66 3.67 -2.32 3.34 -3 3 C-2.01 2.01 -1.02 1.02 0 0 Z " fill="#398DC8" transform="translate(39,101)"/>
<path d="M0 0 C0.91007813 0.00902344 1.82015625 0.01804688 2.7578125 0.02734375 C3.45648438 0.03894531 4.15515625 0.05054688 4.875 0.0625 C4.215 1.3825 3.555 2.7025 2.875 4.0625 C-0.425 4.0625 -3.725 4.0625 -7.125 4.0625 C-7.125 3.0725 -7.125 2.0825 -7.125 1.0625 C-4.60024538 -0.19987731 -2.81299534 -0.03606404 0 0 Z " fill="#E6DCBC" transform="translate(165.125,141.9375)"/>
<path d="M0 0 C2.25 1.5625 2.25 1.5625 3.125 4.4375 C3.23343983 7.14849578 3.12803259 9.02596142 2.25 11.5625 C1.59 9.2525 0.93 6.9425 0.25 4.5625 C-1.4 4.2325 -3.05 3.9025 -4.75 3.5625 C-5.08 4.2225 -5.41 4.8825 -5.75 5.5625 C-6.41 5.5625 -7.07 5.5625 -7.75 5.5625 C-7.75 4.5725 -7.75 3.5825 -7.75 2.5625 C-4.96462952 0.25462161 -3.6243985 -0.57660885 0 0 Z " fill="#699BB3" transform="translate(32.75,43.4375)"/>
<path d="M0 0 C0.33 1.32 0.66 2.64 1 4 C1.66 4 2.32 4 3 4 C2.79375 5.093125 2.5875 6.18625 2.375 7.3125 C1.59653475 11.0838401 1.59653475 11.0838401 4 14 C2.0625 13.375 2.0625 13.375 0 12 C-0.75 8.875 -0.75 8.875 -1 6 C-1.99 6 -2.98 6 -4 6 C-3.0022242 3.00667261 -2.2477975 2.05233685 0 0 Z " fill="#EAC37E" transform="translate(167,120)"/>
<path d="M0 0 C0.99 0.66 1.98 1.32 3 2 C2.125 7.75 2.125 7.75 1 10 C0.01 10.33 -0.98 10.66 -2 11 C-2.66 10.67 -3.32 10.34 -4 10 C-2.99806563 6.20696275 -2.18975773 3.28463659 0 0 Z " fill="#3385BE" transform="translate(56,94)"/>
<path d="M0 0 C1.32 0 2.64 0 4 0 C4.87867729 3.73437848 5.08912219 7.16774573 5 11 C4.01 11.495 4.01 11.495 3 12 C1.19682779 8.03302114 0.50797009 4.3177458 0 0 Z " fill="#F7BB65" transform="translate(98,121)"/>
<path d="M0 0 C5.61 0 11.22 0 17 0 C16.67 0.99 16.34 1.98 16 3 C12.8035914 4.06546953 10.34252724 4.07427838 7 4 C7 3.34 7 2.68 7 2 C6.071875 2.33 5.14375 2.66 4.1875 3 C1 4 1 4 -2 4 C-1.34 2.68 -0.68 1.36 0 0 Z " fill="#D2C39B" transform="translate(136,117)"/>
<path d="M0 0 C0.99 0.33 1.98 0.66 3 1 C3.33 2.65 3.66 4.3 4 6 C3.01 6.66 2.02 7.32 1 8 C1 8.66 1 9.32 1 10 C1.66 10.33 2.32 10.66 3 11 C1.35 11.33 -0.3 11.66 -2 12 C-3.15957207 8.52128379 -2.77456651 7.65780355 -1.5625 4.3125 C-1.13130859 3.10013672 -1.13130859 3.10013672 -0.69140625 1.86328125 C-0.46324219 1.24839844 -0.23507813 0.63351563 0 0 Z " fill="#4C95C0" transform="translate(152,104)"/>
<path d="M0 0 C0.66 0.33 1.32 0.66 2 1 C2.625 3.0625 2.625 3.0625 3 5 C3.99 4.67 4.98 4.34 6 4 C6 4.66 6 5.32 6 6 C6.66 6.33 7.32 6.66 8 7 C7.01 8.485 7.01 8.485 6 10 C4.68 9.34 3.36 8.68 2 8 C2 7.34 2 6.68 2 6 C1.01 6.33 0.02 6.66 -1 7 C-1.33 6.34 -1.66 5.68 -2 5 C-1.34 4.34 -0.68 3.68 0 3 C0 2.01 0 1.02 0 0 Z " fill="#74AED7" transform="translate(25,57)"/>
<path d="M0 0 C-0.28127421 1.48117801 -0.57533732 2.95993249 -0.875 4.4375 C-1.03742188 5.26121094 -1.19984375 6.08492188 -1.3671875 6.93359375 C-1.57601562 7.61550781 -1.78484375 8.29742187 -2 9 C-2.99 9.495 -2.99 9.495 -4 10 C-4.88935377 6.696686 -5.46274105 3.37705625 -6 0 C-3 -1 -3 -1 0 0 Z " fill="#4B91C7" transform="translate(88,105)"/>
<path d="M0 0 C2.0625 0.4375 2.0625 0.4375 4 1 C4.33 2.65 4.66 4.3 5 6 C4.01 6.66 3.02 7.32 2 8 C1.01 7.34 0.02 6.68 -1 6 C-1.25 3.4375 -1.25 3.4375 -1 1 C-0.67 0.67 -0.34 0.34 0 0 Z " fill="#F3B95B" transform="translate(125,136)"/>
<path d="M0 0 C2.79828356 0.38597015 3.8205884 0.80136573 5.75 2.9375 C7 5 7 5 7 7 C6.34 7 5.68 7 5 7 C5 7.99 5 8.98 5 10 C4.01 9.67 3.02 9.34 2 9 C2 7 2 7 3 6 C2.34 6 1.68 6 1 6 C0.67 4.02 0.34 2.04 0 0 Z " fill="#4C97D2" transform="translate(103,96)"/>
<path d="M0 0 C1.32 0.99 2.64 1.98 4 3 C3.79375 3.598125 3.5875 4.19625 3.375 4.8125 C2.69328085 7.28450846 2.69328085 7.28450846 5 10 C3.35 10 1.7 10 0 10 C0 8.02 0 6.04 0 4 C-0.66 3.67 -1.32 3.34 -2 3 C-2 2.34 -2 1.68 -2 1 C-1.34 0.67 -0.68 0.34 0 0 Z " fill="#F8C67B" transform="translate(124,126)"/>
<path d="M0 0 C2.31 0.33 4.62 0.66 7 1 C7 1.66 7 2.32 7 3 C8.32 3 9.64 3 11 3 C11.66 2.01 12.32 1.02 13 0 C13.33 1.98 13.66 3.96 14 6 C9.38 5.01 4.76 4.02 0 3 C0 2.01 0 1.02 0 0 Z " fill="#678796" transform="translate(31,111)"/>
<path d="M0 0 C0.66 0 1.32 0 2 0 C2.33 1.32 2.66 2.64 3 4 C4.32 3.67 5.64 3.34 7 3 C6.4375 4.9375 6.4375 4.9375 5 7 C1.375 7.75 1.375 7.75 -2 8 C-1.67 7.01 -1.34 6.02 -1 5 C-0.65179959 3.33637583 -0.31595508 1.67004829 0 0 Z " fill="#3481BE" transform="translate(101,98)"/>
<path d="M0 0 C1.32 0 2.64 0 4 0 C4.33 2.64 4.66 5.28 5 8 C3.68 8.33 2.36 8.66 1 9 C-1.09230769 4.56923077 -1.09230769 4.56923077 -0.625 1.6875 C-0.41875 1.130625 -0.2125 0.57375 0 0 Z " fill="#F4B35C" transform="translate(111,120)"/>
<path d="M0 0 C2.97 0 5.94 0 9 0 C9 1.98 9 3.96 9 6 C8.34 6 7.68 6 7 6 C7 4.68 7 3.36 7 2 C5.02 2 3.04 2 1 2 C0.67 2.99 0.34 3.98 0 5 C-0.66 4.67 -1.32 4.34 -2 4 C-1.34 2.68 -0.68 1.36 0 0 Z " fill="#CCB283" transform="translate(78,116)"/>
<path d="M0 0 C0.99 0.33 1.98 0.66 3 1 C3.31263383 7.87794433 3.31263383 7.87794433 1 11 C-1.125 11.75 -1.125 11.75 -3 12 C-3 11.34 -3 10.68 -3 10 C-2.34 10 -1.68 10 -1 10 C-0.32326553 6.59679066 -0.32326553 6.59679066 0 3 C-0.66 2.34 -1.32 1.68 -2 1 C-1.34 0.67 -0.68 0.34 0 0 Z " fill="#3783BC" transform="translate(141,105)"/>
<path d="M0 0 C1.98 0.495 1.98 0.495 4 1 C4.43200679 5.75207471 2.98489083 8.78210698 1 13 C0.34 12.34 -0.32 11.68 -1 11 C-0.7018576 9.65835921 -0.35858516 8.32676508 0 7 C0.03888349 4.66699067 0.0448635 2.33290199 0 0 Z " fill="#4793CB" transform="translate(126,91)"/>
<path d="M0 0 C0.66 0 1.32 0 2 0 C2 2.64 2 5.28 2 8 C3.32 8.33 4.64 8.66 6 9 C6.33 10.32 6.66 11.64 7 13 C5.1875 12.875 5.1875 12.875 3 12 C0.33719307 7.91068936 -0.34568576 4.83960066 0 0 Z " fill="#E5C893" transform="translate(115,143)"/>
<path d="M0 0 C2.25 0.25 2.25 0.25 4 1 C3.67 2.32 3.34 3.64 3 5 C0.625 5.625 0.625 5.625 -2 6 C-2.66 5.34 -3.32 4.68 -4 4 C-2.25 1.9375 -2.25 1.9375 0 0 Z " fill="#2C6692" transform="translate(186,96)"/>
<path d="M0 0 C1.41554787 2.61331914 2.58131312 5.30718129 3.6875 8.0625 C3.95949219 8.73410156 4.23148438 9.40570313 4.51171875 10.09765625 C5 12 5 12 4 15 C3.34 14.34 2.68 13.68 2 13 C2 11.68 2 10.36 2 9 C1.34 8.67 0.68 8.34 0 8 C0 7.01 0 6.02 0 5 C-1.32 5 -2.64 5 -4 5 C-4 4.34 -4 3.68 -4 3 C-2 1.375 -2 1.375 0 0 Z " fill="#3D73AB" transform="translate(114,92)"/>
<path d="M0 0 C2.64 0 5.28 0 8 0 C7.67 1.32 7.34 2.64 7 4 C4.69 4 2.38 4 0 4 C0 2.68 0 1.36 0 0 Z " fill="#DBD6AB" transform="translate(15,142)"/>
<path d="M0 0 C2.46109333 1.92607304 2.98641787 2.93949777 3.6875 6.0625 C4 9 4 9 4 11 C2.0625 10.6875 2.0625 10.6875 0 10 C-0.33 9.01 -0.66 8.02 -1 7 C-0.67 6.34 -0.34 5.68 0 5 C0.0396713 3.33380554 0.04384447 1.66608987 0 0 Z " fill="#1D71AF" transform="translate(121,100)"/>
<path d="M0 0 C0.763125 0.0825 1.52625 0.165 2.3125 0.25 C2.6425 1.24 2.9725 2.23 3.3125 3.25 C-0.1525 4.735 -0.1525 4.735 -3.6875 6.25 C-4.3475 5.59 -5.0075 4.93 -5.6875 4.25 C-3.34903846 0.31153846 -3.34903846 0.31153846 0 0 Z " fill="#5EA0D5" transform="translate(62.6875,89.75)"/>
<path d="M0 0 C1.32 0.33 2.64 0.66 4 1 C3.25 3.4375 3.25 3.4375 2 6 C-0.125 6.8125 -0.125 6.8125 -2 7 C-2.66 5.35 -3.32 3.7 -4 2 C-2.68 1.67 -1.36 1.34 0 1 C0 0.67 0 0.34 0 0 Z " fill="#2D82C0" transform="translate(131,71)"/>
<path d="M0 0 C0.66 0 1.32 0 2 0 C1.67 1.32 1.34 2.64 1 4 C2.32 3.67 3.64 3.34 5 3 C5 3.99 5 4.98 5 6 C1.7 6.33 -1.6 6.66 -5 7 C-4.67 5.68 -4.34 4.36 -4 3 C-3.67 3.66 -3.34 4.32 -3 5 C-2.34 4.67 -1.68 4.34 -1 4 C-0.34786708 1.97536745 -0.34786708 1.97536745 0 0 Z " fill="#E0C28E" transform="translate(103,141)"/>
<path d="M0 0 C0.97710937 -0.01417969 1.95421875 -0.02835937 2.9609375 -0.04296875 C5.625 0.1875 5.625 0.1875 8.625 2.1875 C5.05179987 2.97186101 2.63306579 3.18902972 -1 2.5 C-4.4495229 1.78814377 -4.4495229 1.78814377 -6.8125 4.125 C-7.328125 4.805625 -7.84375 5.48625 -8.375 6.1875 C-6.24800571 0.65731485 -5.98493903 0.03927125 0 0 Z " fill="#C8B488" transform="translate(115.375,118.8125)"/>
<path d="M0 0 C1.11375 0.3403125 1.11375 0.3403125 2.25 0.6875 C1.92 1.3475 1.59 2.0075 1.25 2.6875 C0.59 2.6875 -0.07 2.6875 -0.75 2.6875 C-0.42 3.6775 -0.09 4.6675 0.25 5.6875 C-1.4 5.6875 -3.05 5.6875 -4.75 5.6875 C-4.75 5.0275 -4.75 4.3675 -4.75 3.6875 C-5.41 3.3575 -6.07 3.0275 -6.75 2.6875 C-4.29511132 0.41445492 -3.41240272 -0.38777304 0 0 Z " fill="#458EC0" transform="translate(126.75,113.3125)"/>
<path d="M0 0 C0.66 0 1.32 0 2 0 C1.67 2.31 1.34 4.62 1 7 C-0.43655854 7.08131463 -1.8744483 7.13933559 -3.3125 7.1875 C-4.51326172 7.23970703 -4.51326172 7.23970703 -5.73828125 7.29296875 C-8.47851584 6.93801608 -9.29171079 6.10633718 -11 4 C-10.01 3.34 -9.02 2.68 -8 2 C-7.67 3.32 -7.34 4.64 -7 6 C-5.02 5.67 -3.04 5.34 -1 5 C-0.67 3.35 -0.34 1.7 0 0 Z " fill="#597E8E" transform="translate(102,112)"/>
<path d="M0 0 C1.65 0 3.3 0 5 0 C4.67 2.31 4.34 4.62 4 7 C3.01 7.33 2.02 7.66 1 8 C-0.42944945 5.64561267 -1.08661261 4.51967567 -0.625 1.75 C-0.41875 1.1725 -0.2125 0.595 0 0 Z " fill="#69A8D7" transform="translate(141,96)"/>
<path d="M0 0 C2.31 0.33 4.62 0.66 7 1 C6.67 2.32 6.34 3.64 6 5 C5.67 4.34 5.34 3.68 5 3 C2.97536745 2.34786708 2.97536745 2.34786708 1 2 C1 2.66 1 3.32 1 4 C0.34 4 -0.32 4 -1 4 C-1.66 5.32 -2.32 6.64 -3 8 C-3.33 7.34 -3.66 6.68 -4 6 C-3.0625 3.875 -3.0625 3.875 -2 2 C-1.34 2 -0.68 2 0 2 C0 1.34 0 0.68 0 0 Z " fill="#517FA1" transform="translate(102,94)"/>
<path d="M0 0 C0 7 0 7 -1 9 C-2.9375 8.3125 -2.9375 8.3125 -5 7 C-5.75 4.375 -5.75 4.375 -6 2 C-4.02 1.34 -2.04 0.68 0 0 Z " fill="#559DD2" transform="translate(24,65)"/>
<path d="M0 0 C1.65 1.65 3.3 3.3 5 5 C1.57653445 8.14958831 -1.44262737 8.56179109 -6 9 C-4.75 7.5 -4.75 7.5 -3 6 C-1.68 6 -0.36 6 1 6 C0.67 4.02 0.34 2.04 0 0 Z " fill="#51798A" transform="translate(183,108)"/>
<path d="M0 0 C1.67542976 0.28604898 3.34385343 0.61781233 5 1 C5.33 2.65 5.66 4.3 6 6 C5.01 6.66 4.02 7.32 3 8 C2 7 2 7 1.9375 4.4375 C1.958125 3.633125 1.97875 2.82875 2 2 C1.01 1.67 0.02 1.34 -1 1 C-0.67 0.67 -0.34 0.34 0 0 Z " fill="#276FA1" transform="translate(155,100)"/>
<path d="M0 0 C0.33 0 0.66 0 1 0 C1.13277344 0.71027344 1.26554688 1.42054687 1.40234375 2.15234375 C1.57894531 3.07144531 1.75554688 3.99054688 1.9375 4.9375 C2.11152344 5.85402344 2.28554687 6.77054688 2.46484375 7.71484375 C2.77714988 9.95289844 2.77714988 9.95289844 4 11 C5.155 11.144375 6.31 11.28875 7.5 11.4375 C8.655 11.623125 9.81 11.80875 11 12 C11.33 12.66 11.66 13.32 12 14 C10.37399059 13.9129995 8.74910322 13.8048219 7.125 13.6875 C6.22007813 13.62949219 5.31515625 13.57148438 4.3828125 13.51171875 C2 13 2 13 0 10 C-0.1953125 7.51953125 -0.1953125 7.51953125 -0.125 4.8125 C-0.10695313 3.91144531 -0.08890625 3.01039062 -0.0703125 2.08203125 C-0.04710937 1.39496094 -0.02390625 0.70789063 0 0 Z " fill="#E1C99E" transform="translate(12,124)"/>
<path d="M0 0 C2.64 0 5.28 0 8 0 C7.34 0.66 6.68 1.32 6 2 C6 2.99 6 3.98 6 5 C6.66 5.66 7.32 6.32 8 7 C7.34 7 6.68 7 6 7 C5.67 7.66 5.34 8.32 5 9 C4.01 8.01 3.02 7.02 2 6 C2.66 4.68 3.32 3.36 4 2 C2.68 1.34 1.36 0.68 0 0 Z " fill="#F1D59D" transform="translate(124,120)"/>
<path d="M0 0 C2.00720923 0.28674418 4.0085944 0.61866701 6 1 C4.35 4.63 2.7 8.26 1 12 C-0.31223496 8.06329512 0.75703744 5.87511856 2 2 C1.01 1.67 0.02 1.34 -1 1 C-0.67 0.67 -0.34 0.34 0 0 Z " fill="#D2B983" transform="translate(69,115)"/>
<path d="M0 0 C0.66 0 1.32 0 2 0 C2.33 1.32 2.66 2.64 3 4 C3.66 4 4.32 4 5 4 C5.33 4.99 5.66 5.98 6 7 C3.36 7 0.72 7 -2 7 C-2 3 -2 3 0 1 C0 0.67 0 0.34 0 0 Z " fill="#8CB2C9" transform="translate(128,113)"/>
<path d="M0 0 C0.66 0 1.32 0 2 0 C2 1.32 2 2.64 2 4 C3.98 4 5.96 4 8 4 C7.34 4.66 6.68 5.32 6 6 C3.27130593 5.96712417 0.7033382 5.43602229 -2 5 C-2 4.01 -2 3.02 -2 2 C-1.34 2 -0.68 2 0 2 C0 1.34 0 0.68 0 0 Z " fill="#4F7F91" transform="translate(48,111)"/>
<path d="M0 0 C2 1 2 1 4 4 C3.01 4 2.02 4 1 4 C0.67 5.98 0.34 7.96 0 10 C-2.5654594 7.4345406 -2.54046087 5.52313332 -3 2 C-2.01 1.34 -1.02 0.68 0 0 Z " fill="#3E85C0" transform="translate(169,88)"/>
<path d="M0 0 C1.98 0.66 3.96 1.32 6 2 C6 3.65 6 5.3 6 7 C5.34 7 4.68 7 4 7 C4 6.01 4 5.02 4 4 C3.01 4 2.02 4 1 4 C0.67 4.66 0.34 5.32 0 6 C0 5.34 0 4.68 0 4 C-0.66 3.67 -1.32 3.34 -2 3 C-1.34 3 -0.68 3 0 3 C0 2.01 0 1.02 0 0 Z " fill="#498BB8" transform="translate(22,74)"/>
<path d="M0 0 C-0.309375 0.886875 -0.61875 1.77375 -0.9375 2.6875 C-1.8290671 5.46709155 -2.49377007 8.13136375 -3 11 C-3.66 11 -4.32 11 -5 11 C-5.36717663 3.5340751 -5.36717663 3.5340751 -3.625 1 C-2 0 -2 0 0 0 Z " fill="#F4C67A" transform="translate(122,140)"/>
<path d="M0 0 C0.33 0 0.66 0 1 0 C1.125 3.375 1.125 3.375 1 7 C0.34 7.66 -0.32 8.32 -1 9 C-4.125 8.625 -4.125 8.625 -7 8 C-7.33 6.68 -7.66 5.36 -8 4 C-7.01 4.495 -7.01 4.495 -6 5 C-6 5.66 -6 6.32 -6 7 C-4.35 7 -2.7 7 -1 7 C-1.33 6.01 -1.66 5.02 -2 4 C-1.0625 1.8125 -1.0625 1.8125 0 0 Z " fill="#3778A8" transform="translate(160,106)"/>
<path d="M0 0 C2.97 0.495 2.97 0.495 6 1 C5.67 2.32 5.34 3.64 5 5 C3.02 5 1.04 5 -1 5 C-0.67 3.35 -0.34 1.7 0 0 Z " fill="#FDD395" transform="translate(141,119)"/>
<path d="M0 0 C0.99 0.33 1.98 0.66 3 1 C3.33 1.99 3.66 2.98 4 4 C3.01 4.99 2.02 5.98 1 7 C0.01 6.67 -0.98 6.34 -2 6 C-1.34 4.02 -0.68 2.04 0 0 Z " fill="#3976A6" transform="translate(132,99)"/>
<path d="M0 0 C0.99 0.33 1.98 0.66 3 1 C2.34 2.98 1.68 4.96 1 7 C-1.31 7 -3.62 7 -6 7 C-6 6.34 -6 5.68 -6 5 C-4.02 4.67 -2.04 4.34 0 4 C0 2.68 0 1.36 0 0 Z " fill="#4A92CA" transform="translate(175,100)"/>
<path d="M0 0 C2.31 0.33 4.62 0.66 7 1 C7.33 1.99 7.66 2.98 8 4 C7.67 4.66 7.34 5.32 7 6 C4.525 5.01 4.525 5.01 2 4 C2 3.01 2 2.02 2 1 C1.34 0.67 0.68 0.34 0 0 Z " fill="#F7B14D" transform="translate(172,130)"/>
<path d="M0 0 C1.32 0.33 2.64 0.66 4 1 C3.67 2.98 3.34 4.96 3 7 C1.35 6.67 -0.3 6.34 -2 6 C-1.34 4.02 -0.68 2.04 0 0 Z " fill="#2871A6" transform="translate(164,107)"/>
<path d="M0 0 C0.33 0.66 0.66 1.32 1 2 C2.65 1.34 4.3 0.68 6 0 C6.33 0.99 6.66 1.98 7 3 C5 5 5 5 2.375 5.125 C1.59125 5.08375 0.8075 5.0425 0 5 C0 3.35 0 1.7 0 0 Z " fill="#56869C" transform="translate(13,109)"/>
<path d="M0 0 C0.75 1.6875 0.75 1.6875 1 4 C-0.80447147 6.61337248 -2.7582981 8.7582981 -5 11 C-4.25 4.375 -4.25 4.375 -2 1 C-1.34 0.67 -0.68 0.34 0 0 Z " fill="#4D8EB7" transform="translate(100,100)"/>
<path d="M0 0 C2.64 0.66 5.28 1.32 8 2 C8.33 1.34 8.66 0.68 9 0 C9.66 0.33 10.32 0.66 11 1 C11 1.66 11 2.32 11 3 C7.33519927 3.93750716 5.59943946 4.28668844 2.125 2.625 C1.42375 2.08875 0.7225 1.5525 0 1 C0 0.67 0 0.34 0 0 Z " fill="#E5C57F" transform="translate(171,134)"/>
<path d="M0 0 C5.94 0.99 5.94 0.99 12 2 C12.33 3.32 12.66 4.64 13 6 C12.01 6.495 12.01 6.495 11 7 C11 5.68 11 4.36 11 3 C7.04 3 3.08 3 -1 3 C-0.67 2.01 -0.34 1.02 0 0 Z " fill="#C9B588" transform="translate(91,117)"/>
<path d="M0 0 C0.99 0 1.98 0 3 0 C2.67 2.31 2.34 4.62 2 7 C1.34 7 0.68 7 0 7 C-2 5 -2 5 -4 2 C-2.68 2 -1.36 2 0 2 C0 1.34 0 0.68 0 0 Z " fill="#3981B7" transform="translate(108,104)"/>
<path d="M0 0 C2 2 2 2 2.125 5.625 C2.08375 6.73875 2.0425 7.8525 2 9 C0.68 8.34 -0.64 7.68 -2 7 C-2 5.35 -2 3.7 -2 2 C-1.34 2 -0.68 2 0 2 C0 1.34 0 0.68 0 0 Z " fill="#418BB4" transform="translate(26,82)"/>
<path d="M0 0 C2.38564077 0.57584432 4.66682784 1.22227595 7 2 C7 2.99 7 3.98 7 5 C5.35 5.33 3.7 5.66 2 6 C0 3 0 3 0 0 Z " fill="#F3D7A3" transform="translate(77,140)"/>
<path d="M0 0 C2 2 2 2 2.125 5.125 C2.08375 6.07375 2.0425 7.0225 2 8 C2.66 8 3.32 8 4 8 C4 8.66 4 9.32 4 10 C2.68 9.34 1.36 8.68 0 8 C0 6.68 0 5.36 0 4 C-0.66 4 -1.32 4 -2 4 C-2 3.34 -2 2.68 -2 2 C-1.34 2 -0.68 2 0 2 C0 1.34 0 0.68 0 0 Z " fill="#ECB558" transform="translate(35,122)"/>
<path d="M0 0 C0.99 0.33 1.98 0.66 3 1 C4.33599181 4.00598158 5.14345053 6.09147996 4.625 9.375 C4.41875 9.91125 4.2125 10.4475 4 11 C1.6870518 8.6870518 1.50419025 7.52095125 0.875 4.375 C0.70742187 3.55773437 0.53984375 2.74046875 0.3671875 1.8984375 C0.24601562 1.27195312 0.12484375 0.64546875 0 0 Z " fill="#EEC991" transform="translate(76,121)"/>
<path d="M0 0 C0.99 0.33 1.98 0.66 3 1 C3.1875 3.375 3.1875 3.375 3 6 C2.01 6.66 1.02 7.32 0 8 C-1.125 6.25 -1.125 6.25 -2 4 C-1.125 1.75 -1.125 1.75 0 0 Z " fill="#65A6D9" transform="translate(127,104)"/>
<path d="M0 0 C1.0625 1.875 1.0625 1.875 2 4 C1.67 4.66 1.34 5.32 1 6 C-1.31 5.67 -3.62 5.34 -6 5 C-5.67 4.01 -5.34 3.02 -5 2 C-3.68 2.66 -2.36 3.32 -1 4 C-0.67 2.68 -0.34 1.36 0 0 Z " fill="#4A8CB3" transform="translate(78,96)"/>
<path d="M0 0 C2.625 0.25 2.625 0.25 4.4375 1.75 C4.829375 2.245 5.22125 2.74 5.625 3.25 C4.4803125 3.4665625 4.4803125 3.4665625 3.3125 3.6875 C0.54327092 4.2132594 0.54327092 4.2132594 -2.375 5.25 C-2.9375 3.3125 -2.9375 3.3125 -3.375 1.25 C-2.375 0.25 -2.375 0.25 0 0 Z " fill="#286E9F" transform="translate(125.375,88.75)"/>
<path d="M0 0 C2 2 2 2 3 5 C2.01 5.33 1.02 5.66 0 6 C-0.33 6.99 -0.66 7.98 -1 9 C-1 8.34 -1 7.68 -1 7 C-1.66 7 -2.32 7 -3 7 C-1.125 2.25 -1.125 2.25 0 0 Z " fill="#599CCC" transform="translate(23,56)"/>
<path d="M0 0 C2.31 0.33 4.62 0.66 7 1 C7.33 1.99 7.66 2.98 8 4 C4.23312136 4 3.08809695 3.76462683 0 2 C0 1.34 0 0.68 0 0 Z " fill="#EBBE73" transform="translate(116,121)"/>
<path d="M0 0 C2.64 0 5.28 0 8 0 C6.68 0.33 5.36 0.66 4 1 C4.33 2.65 4.66 4.3 5 6 C4.01 6.495 4.01 6.495 3 7 C2.67 5.68 2.34 4.36 2 3 C1.34 3 0.68 3 0 3 C0 2.01 0 1.02 0 0 Z " fill="#F7C983" transform="translate(94,120)"/>
<path d="M0 0 C-0.57344937 2.86724686 -0.8614515 3.8614515 -3 6 C-3.99 5.34 -4.98 4.68 -6 4 C-6 3.01 -6 2.02 -6 1 C-3 0 -3 0 0 0 Z " fill="#6AA8D7" transform="translate(102,111)"/>
<path d="M0 0 C0.66 0 1.32 0 2 0 C2.33 0.99 2.66 1.98 3 3 C3.99 3 4.98 3 6 3 C6.66 3 7.32 3 8 3 C7.67 3.99 7.34 4.98 7 6 C5.02 6 3.04 6 1 6 C0.67 4.02 0.34 2.04 0 0 Z " fill="#5190B5" transform="translate(94,112)"/>
<path d="M0 0 C0.99 0 1.98 0 3 0 C2.45276317 3.37462715 1.9451 5.08235 0 8 C-0.38063221 5.6739143 -0.71269945 3.33944736 -1 1 C-0.67 0.67 -0.34 0.34 0 0 Z " fill="#3082BD" transform="translate(173,107)"/>
<path d="M0 0 C0.66 0.33 1.32 0.66 2 1 C0.02 3.97 -1.96 6.94 -4 10 C-4.99 9.67 -5.98 9.34 -7 9 C-4.69 6.03 -2.38 3.06 0 0 Z " fill="#3B7498" transform="translate(34,96)"/>
<path d="M0 0 C0.66 0.33 1.32 0.66 2 1 C2 2.98 2 4.96 2 7 C1.01 7.33 0.02 7.66 -1 8 C-1.66 6.02 -2.32 4.04 -3 2 C-2.01 1.34 -1.02 0.68 0 0 Z " fill="#418CC1" transform="translate(25,66)"/>
<path d="M0 0 C1.66666667 1.66666667 3.33333333 3.33333333 5 5 C4.34 5.66 3.68 6.32 3 7 C1.66666667 7 0.33333333 7 -1 7 C-1.04254356 5.00045254 -1.04080783 2.99958364 -1 1 C-0.67 0.67 -0.34 0.34 0 0 Z " fill="#3A84BE" transform="translate(18,69)"/>
<path d="M0 0 C0.36923077 6.4 0.36923077 6.4 -1.5 9.4375 C-1.995 9.953125 -2.49 10.46875 -3 11 C-4.36176066 4.34250344 -4.36176066 4.34250344 -3 1 C-1 0 -1 0 0 0 Z " fill="#7495AC" transform="translate(35,56)"/>
<path d="M0 0 C0.66 0.33 1.32 0.66 2 1 C2 2.98 2 4.96 2 7 C0.125 6.6875 0.125 6.6875 -2 6 C-2.66 5.01 -3.32 4.02 -4 3 C-2.68 2.01 -1.36 1.02 0 0 Z " fill="#5190BC" transform="translate(28,53)"/>
<path d="M0 0 C2.31 0 4.62 0 7 0 C6.67 0.99 6.34 1.98 6 3 C3.69 3 1.38 3 -1 3 C-0.67 2.01 -0.34 1.02 0 0 Z " fill="#D9CAA8" transform="translate(146,143)"/>
<path d="M0 0 C0.33 0 0.66 0 1 0 C0.25531915 7.74468085 0.25531915 7.74468085 -3 11 C-3.66 11 -4.32 11 -5 11 C-5 10.34 -5 9.68 -5 9 C-4.34 9 -3.68 9 -3 9 C-2.01 6.03 -1.02 3.06 0 0 Z " fill="#ECC581" transform="translate(187,124)"/>
<path d="M0 0 C2 2 2 2 2.125 4.625 C2.08375 5.40875 2.0425 6.1925 2 7 C0.35 6.67 -1.3 6.34 -3 6 C-2.01 4.02 -1.02 2.04 0 0 Z " fill="#F3B65D" transform="translate(85,123)"/>
<path d="M0 0 C0.66 1.32 1.32 2.64 2 4 C1.01 4.33 0.02 4.66 -1 5 C-1.66 5.66 -2.32 6.32 -3 7 C-3.99 6.01 -4.98 5.02 -6 4 C-5.01 3.67 -4.02 3.34 -3 3 C-1.33289654 1.50014391 -1.33289654 1.50014391 0 0 Z " fill="#6798A2" transform="translate(174,114)"/>
<path d="M0 0 C0.66 0.33 1.32 0.66 2 1 C2 2.65 2 4.3 2 6 C2.99 6.33 3.98 6.66 5 7 C3.02 7 1.04 7 -1 7 C-1.04254356 5.00045254 -1.04080783 2.99958364 -1 1 C-0.67 0.67 -0.34 0.34 0 0 Z " fill="#5785A1" transform="translate(136,111)"/>
<path d="M0 0 C0.928125 0.2784375 0.928125 0.2784375 1.875 0.5625 C4.04160178 1.23686176 4.04160178 1.23686176 6 0 C4.9024777 2.99324263 4.32317108 3.84610901 1.375 5.25 C0.59125 5.4975 -0.1925 5.745 -1 6 C-0.67 4.02 -0.34 2.04 0 0 Z " fill="#5099CF" transform="translate(15,105)"/>
<path d="M0 0 C1.32 1.32 2.64 2.64 4 4 C0.77208445 6.1519437 -0.28400809 6.20086443 -4 6 C-3.34 5.67 -2.68 5.34 -2 5 C-1.27840576 3.35636866 -0.60648579 1.68949614 0 0 Z " fill="#4F9CCC" transform="translate(98,106)"/>
<path d="M0 0 C2.475 0.495 2.475 0.495 5 1 C4.34 1.66 3.68 2.32 3 3 C2.25723969 4.97080157 2.25723969 4.97080157 2 7 C2.33 7.66 2.66 8.32 3 9 C2.01 9.33 1.02 9.66 0 10 C0 6.7 0 3.4 0 0 Z " fill="#4880A7" transform="translate(136,100)"/>
<path d="M0 0 C0.66 0.33 1.32 0.66 2 1 C2 1.66 2 2.32 2 3 C2.99 3.33 3.98 3.66 5 4 C4.01 4.99 3.02 5.98 2 7 C2 6.34 2 5.68 2 5 C0.68 4.67 -0.64 4.34 -2 4 C-1.34 2.68 -0.68 1.36 0 0 Z " fill="#468CC1" transform="translate(61,94)"/>
<path d="M0 0 C1.32 0.66 2.64 1.32 4 2 C4 2.99 4 3.98 4 5 C2.35 5.33 0.7 5.66 -1 6 C-1.33 5.01 -1.66 4.02 -2 3 C-1.34 2.01 -0.68 1.02 0 0 Z " fill="#2A70BB" transform="translate(24,89)"/>
<path d="M0 0 C0.99 0.66 1.98 1.32 3 2 C3 2.99 3 3.98 3 5 C0.36 5 -2.28 5 -5 5 C-4.360625 4.731875 -3.72125 4.46375 -3.0625 4.1875 C-0.66868314 3.11332248 -0.66868314 3.11332248 0 0 Z " fill="#E9D49B" transform="translate(30,143)"/>
<path d="M0 0 C0.66 0.33 1.32 0.66 2 1 C0.3125 4 0.3125 4 -2 7 C-4.75 7.375 -4.75 7.375 -7 7 C-6.01 6.67 -5.02 6.34 -4 6 C-4 5.34 -4 4.68 -4 4 C-3.34 4 -2.68 4 -2 4 C-2 3.34 -2 2.68 -2 2 C-1.34 2 -0.68 2 0 2 C0 1.34 0 0.68 0 0 Z " fill="#E5BB72" transform="translate(48,126)"/>
<path d="M0 0 C0.99 0.33 1.98 0.66 3 1 C2.67 1.66 2.34 2.32 2 3 C-0.72265625 3.4140625 -0.72265625 3.4140625 -4.0625 3.625 C-5.16722656 3.69976562 -6.27195313 3.77453125 -7.41015625 3.8515625 C-8.26480469 3.90054688 -9.11945313 3.94953125 -10 4 C-9.67 3.34 -9.34 2.68 -9 2 C-7.1875 1.62109375 -7.1875 1.62109375 -5 1.4375 C-2.21067942 1.37334592 -2.21067942 1.37334592 0 0 Z " fill="#678D97" transform="translate(160,113)"/>
<path d="M0 0 C0.99 0.99 1.98 1.98 3 3 C1.02 5.97 1.02 5.97 -1 9 C-1.66 8.67 -2.32 8.34 -3 8 C-3 5 -3 5 -1.5 3.4375 C-1.005 2.963125 -0.51 2.48875 0 2 C0 1.34 0 0.68 0 0 Z " fill="#5CA2D3" transform="translate(22,104)"/>
<path d="M0 0 C0 1.98 0 3.96 0 6 C-1.32 6 -2.64 6 -4 6 C-4.33 5.01 -4.66 4.02 -5 3 C-1.125 0 -1.125 0 0 0 Z " fill="#3381B5" transform="translate(42,108)"/>
<path d="M0 0 C1.65 0 3.3 0 5 0 C5 1.65 5 3.3 5 5 C4.01 5.33 3.02 5.66 2 6 C2 5.01 2 4.02 2 3 C1.34 2.67 0.68 2.34 0 2 C0 1.34 0 0.68 0 0 Z " fill="#347CB8" transform="translate(152,102)"/>
<path d="M0 0 C-2.05233685 2.2477975 -3.00667261 3.0022242 -6 4 C-6.33 2.35 -6.66 0.7 -7 -1 C-3.51418144 -2.2020064 -3.32007656 -2.21338437 0 0 Z " fill="#2176B5" transform="translate(80,105)"/>
<path d="M0 0 C0.99 0 1.98 0 3 0 C2.67 1.32 2.34 2.64 2 4 C2.66 4 3.32 4 4 4 C3.34 5.65 2.68 7.3 2 9 C1.34 9 0.68 9 0 9 C0 6.03 0 3.06 0 0 Z " fill="#2A6CC0" transform="translate(36,95)"/>
<path d="M0 0 C1.98 0 3.96 0 6 0 C5.25 1.9375 5.25 1.9375 4 4 C1.875 4.75 1.875 4.75 0 5 C0 3.35 0 1.7 0 0 Z " fill="#E3C992" transform="translate(25,142)"/>
<path d="M0 0 C1.0625 1.875 1.0625 1.875 2 4 C1.67 4.66 1.34 5.32 1 6 C-0.32 6 -1.64 6 -3 6 C-3 4.68 -3 3.36 -3 2 C-2.01 1.34 -1.02 0.68 0 0 Z " fill="#6AADDC" transform="translate(85,99)"/>
<path d="M0 0 C1.98 0.495 1.98 0.495 4 1 C4 2.32 4 3.64 4 5 C3.01 5 2.02 5 1 5 C1 4.34 1 3.68 1 3 C0.34 3 -0.32 3 -1 3 C-0.67 2.01 -0.34 1.02 0 0 Z " fill="#4981AC" transform="translate(39,96)"/>
<path d="M0 0 C0.99 1.32 1.98 2.64 3 4 C2.34 5.32 1.68 6.64 1 8 C0.01 8 -0.98 8 -2 8 C-1.34 5.36 -0.68 2.72 0 0 Z " fill="#588CAC" transform="translate(21,52)"/>
<path d="M0 0 C0.66 0.99 1.32 1.98 2 3 C-0.31 3.66 -2.62 4.32 -5 5 C-4.67 3.68 -4.34 2.36 -4 1 C-2.68 0.67 -1.36 0.34 0 0 Z " fill="#EFDBBB" transform="translate(127,151)"/>
<path d="M0 0 C2.3125 -0.1875 2.3125 -0.1875 5 0 C5.99 0.99 6.98 1.98 8 3 C5.03 2.67 2.06 2.34 -1 2 C-0.67 1.34 -0.34 0.68 0 0 Z " fill="#D6CE9F" transform="translate(171,143)"/>
<path d="M0 0 C2.625 -0.1875 2.625 -0.1875 5 0 C5 0.99 5 1.98 5 3 C2.69 3 0.38 3 -2 3 C-1.34 2.01 -0.68 1.02 0 0 Z " fill="#EBE0AE" transform="translate(163,143)"/>
<path d="M0 0 C-0.33 0.66 -0.66 1.32 -1 2 C-1.99 2.33 -2.98 2.66 -4 3 C-5.66710346 4.49985609 -5.66710346 4.49985609 -7 6 C-7 4.35 -7 2.7 -7 1 C-4.53721199 -0.231394 -2.7204945 -0.07159196 0 0 Z " fill="#F0D598" transform="translate(74,141)"/>
<path d="M0 0 C0 0.99 0 1.98 0 3 C-3.96 2.67 -7.92 2.34 -12 2 C-12 1.67 -12 1.34 -12 1 C-10.56274129 0.83126522 -9.12518162 0.66509263 -7.6875 0.5 C-6.88699219 0.4071875 -6.08648437 0.314375 -5.26171875 0.21875 C-3 0 -3 0 0 0 Z " fill="#D9C283" transform="translate(37,140)"/>
<path d="M0 0 C2.475 0.495 2.475 0.495 5 1 C5.33 1.99 5.66 2.98 6 4 C4.35 4.33 2.7 4.66 1 5 C0.67 3.35 0.34 1.7 0 0 Z " fill="#F7B555" transform="translate(19,130)"/>
<path d="M0 0 C0.66 0 1.32 0 2 0 C1.67 1.65 1.34 3.3 1 5 C-0.98 5.66 -2.96 6.32 -5 7 C-5 6.34 -5 5.68 -5 5 C-3.33333333 4 -1.66666667 3 0 2 C0 1.34 0 0.68 0 0 Z " fill="#F5DCB9" transform="translate(150,125)"/>
<path d="M0 0 C2.64 0 5.28 0 8 0 C7.67 0.66 7.34 1.32 7 2 C5.125 2.5625 5.125 2.5625 3 3 C2.01 3.33 1.02 3.66 0 4 C0 2.68 0 1.36 0 0 Z " fill="#E3B873" transform="translate(46,117)"/>
<path d="M0 0 C0.99 0.66 1.98 1.32 3 2 C2.67 2.99 2.34 3.98 2 5 C1.01 5.33 0.02 5.66 -1 6 C-1 5.34 -1 4.68 -1 4 C-1.66 3.67 -2.32 3.34 -3 3 C-2.01 2.01 -1.02 1.02 0 0 Z " fill="#4093CD" transform="translate(39,101)"/>
<path d="M0 0 C2.2477975 2.05233685 3.0022242 3.00667261 4 6 C3.01 7.485 3.01 7.485 2 9 C2 7.35 2 5.7 2 4 C-0.475 3.01 -0.475 3.01 -3 2 C-2.01 1.34 -1.02 0.68 0 0 Z " fill="#5481A4" transform="translate(65,87)"/>
<path d="M0 0 C0.99 0 1.98 0 3 0 C3 0.99 3 1.98 3 3 C3.66 3.33 4.32 3.66 5 4 C4.34 4 3.68 4 3 4 C2.67 4.66 2.34 5.32 2 6 C1.01 4.68 0.02 3.36 -1 2 C-0.67 1.34 -0.34 0.68 0 0 Z " fill="#62A7D3" transform="translate(23,78)"/>
<path d="M0 0 C0.66 0 1.32 0 2 0 C1.30058404 3.14737182 0.23921302 6.02588876 -1 9 C-1.33 9 -1.66 9 -2 9 C-1.125 1.125 -1.125 1.125 0 0 Z " fill="#6095B6" transform="translate(30,67)"/>
<path d="M0 0 C0.33 0.99 0.66 1.98 1 3 C-0.3125 5.1875 -0.3125 5.1875 -2 7 C-2.66 7 -3.32 7 -4 7 C-4.33 6.01 -4.66 5.02 -5 4 C-3.35 2.68 -1.7 1.36 0 0 Z " fill="#E7D3AC" transform="translate(132,146)"/>
<path d="M0 0 C1.65 0 3.3 0 5 0 C5 0.99 5 1.98 5 3 C3.02 3 1.04 3 -1 3 C-0.67 2.01 -0.34 1.02 0 0 Z " fill="#E8DDA5" transform="translate(153,143)"/>
<path d="M0 0 C1.98 1.65 3.96 3.3 6 5 C4.68 5.33 3.36 5.66 2 6 C0 3 0 3 0 0 Z " fill="#EBC58E" transform="translate(96,129)"/>
<path d="M0 0 C1.32 0.33 2.64 0.66 4 1 C2.71034824 2.37562854 1.37310707 3.70766393 0 5 C-0.66 5 -1.32 5 -2 5 C-1.34 3.35 -0.68 1.7 0 0 Z " fill="#FAD098" transform="translate(147,125)"/>
<path d="M0 0 C2 3 2 3 1.625 5.6875 C1.41875 6.450625 1.2125 7.21375 1 8 C0.34 8 -0.32 8 -1 8 C-0.67 5.36 -0.34 2.72 0 0 Z " fill="#F0B860" transform="translate(176,119)"/>
<path d="M0 0 C0.99 0.33 1.98 0.66 3 1 C2.34 3.97 1.68 6.94 1 10 C0.67 10 0.34 10 0 10 C-1.125 3.375 -1.125 3.375 0 0 Z " fill="#3D79A1" transform="translate(25,94)"/>
<path d="M0 0 C1.65 0 3.3 0 5 0 C5.33 0.99 5.66 1.98 6 3 C5.34 3 4.68 3 4 3 C4 2.34 4 1.68 4 1 C3.38125 1.495 2.7625 1.99 2.125 2.5 C0 4 0 4 -2 4 C-1.34 2.68 -0.68 1.36 0 0 Z " fill="#5B8DA3" transform="translate(73,91)"/>
<path d="M0 0 C2.475 0.495 2.475 0.495 5 1 C5 2.65 5 4.3 5 6 C4.67 5.34 4.34 4.68 4 4 C1.97536745 3.34786708 1.97536745 3.34786708 0 3 C0 2.01 0 1.02 0 0 Z " fill="#2274AF" transform="translate(170,87)"/>
</svg>
