<?xml version="1.0" encoding="UTF-8"?>
<svg version="1.1" xmlns="http://www.w3.org/2000/svg" width="67" height="67">
<path d="M0 0 C5.86369121 3.71843833 9.12792633 8.32035254 11 15 C12.85373812 26.06509662 5.66835616 35.72335756 0.50927734 44.99487305 C-0.50553374 46.82246582 -1.50879366 48.65609786 -2.51171875 50.49023438 C-3.16337192 51.66704934 -3.81569213 52.84349523 -4.46875 54.01953125 C-5.05076172 55.07245361 -5.63277344 56.12537598 -6.23242188 57.21020508 C-7.92378018 59.87970111 -9.67537506 61.87536681 -12 64 C-17.26064621 55.15763722 -22.46258073 46.2842949 -27.5 37.3125 C-27.92071777 36.5714502 -28.34143555 35.83040039 -28.77490234 35.06689453 C-32.69179065 28.04212758 -35.51244885 21.69658878 -33.34765625 13.54296875 C-30.91099139 6.56762342 -27.5892022 2.37590586 -21.015625 -1.02734375 C-13.67663198 -4.11370322 -7.01029557 -3.64314573 0 0 Z " fill="#2F7FB5" transform="translate(45,3)"/>
<path d="M0 0 C3.86998675 2.19055854 5.87976992 4.15435399 8.3125 7.875 C8.8075 11.34 8.8075 11.34 9.3125 14.875 C-1.5775 14.875 -12.4675 14.875 -23.6875 14.875 C-22.70727941 8.99367647 -21.81955615 5.45059947 -17.1484375 1.609375 C-11.38931636 -2.12484967 -6.41843519 -1.95816667 0 0 Z " fill="#1C8DD8" transform="translate(40.6875,7.125)"/>
<path d="M0 0 C10.89 0 21.78 0 33 0 C32.00823496 6.94235526 31.71316237 8.39157458 27 13 C22.22073603 16.25858907 17.63251044 17.00069982 12 16 C5.84921716 13.55921316 2.61160904 9.98493738 0 4 C0 2.68 0 1.36 0 0 Z " fill="#FCC304" transform="translate(17,23)"/>
<path d="M0 0 C5.74126431 2.71954625 9.47818237 7.20518502 12 13 C12.88566449 17.95972114 12.39520827 21.96737759 9.8125 26.3125 C6.47278142 31.04455197 2.65249666 34.42255907 -3 36 C-8.99237445 36.68764953 -12.28401363 35.86946108 -17.23828125 32.43359375 C-20.60423986 29.69455426 -22.63199196 27.10402411 -24 23 C-24.48988853 17.43454509 -24.76814541 12.59319048 -22.3125 7.5 C-15.34416456 -0.03333561 -10.06307934 -0.88251122 0 0 Z M-20.390625 7.75 C-22.42704614 11.0771106 -23 13.05499389 -23 17 C-12.11 17 -1.22 17 10 17 C9.00976564 10.06835949 8.76751958 8.56023612 4 4 C-4.8677271 -1.01946817 -13.86704755 -0.45944577 -20.390625 7.75 Z M-23 18 C-21.83629704 24.98221776 -20.47916664 28.1527778 -14.8125 32.375 C-10.59411246 34.51123471 -6.62792899 34.92876105 -2 34 C2.39842494 32.06469302 6.80228364 29.39543272 9 25 C9.33 22.69 9.66 20.38 10 18 C-0.89 18 -11.78 18 -23 18 Z " fill="#B8C0B4" transform="translate(40,5)"/>
</svg>
