<?xml version="1.0" encoding="UTF-8"?>
<svg version="1.1" xmlns="http://www.w3.org/2000/svg" width="64" height="64">
<path d="M0 0 C1.32 0 2.64 0 4 0 C4 0.66 4 1.32 4 2 C20.5 2 37 2 54 2 C54 13.22 54 24.44 54 36 C37.5 36 21 36 4 36 C4 41.94 4 47.88 4 54 C4.99 54 5.98 54 7 54 C7.33 55.65 7.66 57.3 8 59 C4.04 59 0.08 59 -4 59 C-3.67 57.35 -3.34 55.7 -3 54 C-2.01 54 -1.02 54 0 54 C0 36.18 0 18.36 0 0 Z " fill="#005ABB" transform="translate(6,3)"/>
<path d="M0 0 C16.5 0 33 0 50 0 C50 5.28 50 10.56 50 16 C33.5 16 17 16 0 16 C0 10.72 0 5.44 0 0 Z " fill="#FFD400" transform="translate(10,23)"/>
<path d="M0 0 C1.32 0 2.64 0 4 0 C4 6.27 4 12.54 4 19 C20.5 19 37 19 54 19 C54 19.33 54 19.66 54 20 C37.5 20 21 20 4 20 C4 31.22 4 42.44 4 54 C4.99 54 5.98 54 7 54 C7.33 55.65 7.66 57.3 8 59 C4.04 59 0.08 59 -4 59 C-3.67 57.35 -3.34 55.7 -3 54 C-2.01 54 -1.02 54 0 54 C0 36.18 0 18.36 0 0 Z " fill="#858775" transform="translate(6,3)"/>
</svg>
